<svg width="96" height="auto" xmlns="http://www.w3.org/2000/svg" viewBox="0 0 93.98 20.33">
    <defs>
        <style>
            .cls-1 {
                fill: #939393;
            }
        </style>
    </defs>
    <g id="Layer_2" data-name="Layer 2">
        <g id="Layer_1-2" data-name="Layer 1">
            <path class="cls-1"
                d="M4.46.92a2.27,2.27,0,0,0-2-.61C1.06.52.26,1,.2,3.28c0,.6.67.58,1.47.6H4.06s.6-.29.66-.77.06-1.82.06-1.82A3.51,3.51,0,0,0,4.46.92Z" />
            <path class="cls-1"
                d="M6.65.43s-.9.06-1,.66a19.26,19.26,0,0,0,0,2.22s-.06.54.66.63,3.28-.06,3.28-.06.75-.4.75-1.06V1.26S10.27.46,9.23.4C8.63.37,6.65.43,6.65.43Z" />
            <path class="cls-1"
                d="M12.05.49s-.72.26-.83.8a12.51,12.51,0,0,0,0,2.16,1.11,1.11,0,0,0,1,.69c.8.06,2.1,0,2.1,0a1.1,1.1,0,0,0,.89-.95,9.07,9.07,0,0,0,0-2.13,1.32,1.32,0,0,0-.92-.66A14.7,14.7,0,0,0,12.05.49Z" />
            <path class="cls-1"
                d="M16.89.52s-1-.15-1.07.72a15.21,15.21,0,0,0,0,2.33A1,1,0,0,0,17,4.14c.92-.11,1-.49,1-.89s0-2,0-2S17.89.6,16.89.52Z" />
            <path class="cls-1"
                d="M19.39.52s-.69,0-.66,1.18c0,1.38.23,3.33.75,3.39s.95-1.67,1-2.62S20.11.49,19.39.52Z" />
            <path class="cls-1" d="M3.48,4.8.06,4.72v2.1S.2,8.05.69,8,1.81,6,2.65,5.81,4.11,5,3.48,4.8Z" />
            <path class="cls-1"
                d="M6.3,4.72l3.48,0s.46.18.49,1,0,4.43,0,4.43-.06,1.21.2,1.27a2.49,2.49,0,0,0,.72.06s.29.23.32-1.27-.09-4.49-.09-4.49-.06-1,1.24-1,1.93-.12,2.39,1a5.56,5.56,0,0,1-.23,3.46,6.61,6.61,0,0,1-1.56,1.09,1,1,0,0,0-.54.78c-.06.31.37.86,1,.4S16,9.81,16.05,8.34s.06-2.9.06-2.9a1,1,0,0,1,1-.78c.86,0,1.24,0,1.41,1s-.09,3.65-.64,4.34-.17,1.67.21,1.53.57-.18.66-.95,0-2.16.63-2.19.66.46.66.46.38,3.11.41,4.2,0,5.12,0,5.12,0,1.24-1.13,1.3-.8-.9-.83-2.39,0-4.49,0-4.49a.4.4,0,0,0-.4-.43c-.43,0-.55.77-.49,1.18s.37,1.78-.2,1.95-4.61,1.21-4.92-.14a2.07,2.07,0,0,1,0-1s0-.69-.4-.69-.64.52-.52,1.24,0,1.76.34,2.13a3.56,3.56,0,0,1,.64,2c-.06.49.17,1.1-1.93,1s-7.83-.11-7.83-.11a2.89,2.89,0,0,1-2.7-3,7.68,7.68,0,0,1,.4-1.72,10.59,10.59,0,0,0-.17-2.27c0-.61.17-2.42.69-2.42a1,1,0,0,1,.78.37s1.44,2,3,1.56,3.77-1.33,3.65-3.43-.78-2.87-1.58-3S5.93,5,6.3,4.72Z" />
            <path class="cls-1"
                d="M4.46,6.15a2.62,2.62,0,0,0-1.67.58,3,3,0,0,0-.92,1.84A2.35,2.35,0,0,0,4,11a2.73,2.73,0,0,0,3.34-2.1C7.39,7.91,7.22,6.38,4.46,6.15Z" />
            <path class="cls-1"
                d="M14.18,16.28l2.91.06A1.17,1.17,0,0,1,18,17.63a1.46,1.46,0,0,1-1.21,1.53c-.2,0-2.68,0-2.68,0s-1.23,0-1.38-1.58C12.66,16.31,14.18,16.28,14.18,16.28Z" />
            <polygon class="cls-1"
                points="31.01 1.06 31.01 3.08 28.42 3.08 28.42 5.18 30.93 5.18 27.93 9.49 29.86 10.93 32.22 7.36 34.9 10.7 36.48 9.18 33.77 5.23 36.16 5.23 36.16 2.9 33.57 2.9 33.57 0.95 31.15 0.95 31.01 0.95 31.01 1.06" />
            <polygon class="cls-1"
                points="34.28 12.8 34.28 19.01 41.57 19.01 41.57 16.61 36.53 16.61 36.53 12.82 34.28 12.8" />
            <polygon class="cls-1"
                points="39.06 6.01 36.49 6.01 36.49 8.08 39.03 8.08 39.03 11.12 41.56 11.12 41.56 3.03 39.03 3.03 39.06 6.01" />
            <polygon class="cls-1"
                points="45.36 3.06 45.36 5.13 47.53 5.13 47.77 5.13 45.05 9.52 46.84 10.71 49.05 7.24 51.39 10.8 53.09 9.45 50.46 5.16 52.7 5.16 52.7 3.05 45.36 3.06" />
            <polygon class="cls-1"
                points="55.12 3.06 55.12 11.06 57.61 11.06 57.61 8.1 59.72 8.1 59.72 11.07 61.83 11.07 61.83 3.03 59.74 3.03 59.74 5.96 57.62 5.96 57.62 3.03 55.12 3.06" />
            <polygon class="cls-1"
                points="67.33 0.5 67.33 2.61 73.25 2.61 73.25 5.59 75.37 5.59 75.37 0.49 67.33 0.5" />
            <polygon class="cls-1"
                points="68.18 7.28 68.18 8.93 65.24 8.93 65.24 11.05 78.31 11.05 78.31 8.96 74.12 8.96 74.12 7.24 72 7.24 72 8.94 70.31 8.94 70.31 7.27 68.18 7.28" />
            <path class="cls-1"
                d="M87.58,0a3.46,3.46,0,0,0-3.81,3.63,3.81,3.81,0,1,0,7.62,0C91.39-.1,87.58,0,87.58,0Zm0,5.56a1.73,1.73,0,0,1-1.77-1.84,1.59,1.59,0,0,1,1.75-1.66,1.65,1.65,0,0,1,1.75,1.66A1.72,1.72,0,0,1,87.6,5.56Z" />
            <polygon class="cls-1"
                points="81.28 8.95 81.28 11.08 84.25 11.08 84.25 13.6 86.78 13.6 86.78 11.07 88.45 11.07 88.45 13.6 90.6 13.6 90.6 11.07 93.98 11.07 93.98 8.93 81.28 8.95" />
            <polygon class="cls-1"
                points="84.25 14.48 84.25 16.54 88.9 16.54 88.9 20.33 90.67 20.33 90.67 14.44 84.25 14.48" />
        </g>
    </g>
</svg>