<?xml version="1.0" encoding="utf-8"?>
<!-- Generator: Adobe Illustrator 24.2.3, SVG Export Plug-In . SVG Version: 6.00 Build 0)  -->
<svg version="1.1" id="레이어_1" xmlns="http://www.w3.org/2000/svg" xmlns:xlink="http://www.w3.org/1999/xlink" x="0px"
	 y="0px" viewBox="0 0 40 24" style="enable-background:new 0 0 40 24;" xml:space="preserve">
<style type="text/css">
	.st0{fill:#FFFFFF;}
	.st1{fill:#C43E1C;}
	.st2{fill:#EE3E36;stroke:#EE3E36;stroke-width:0.3;stroke-miterlimit:10;}
	.st3{fill:#13AAE5;}
	.st4{fill:#177ABC;}
	.st5{fill:#29A7D8;}
</style>
<g>
	<path class="st0" d="M28.01-28H11.99c-5.52,0-10,4.48-10,10c0,5.52,4.48,10,10,10h16.03c5.52,0,10-4.48,10-10
		C38.01-23.52,33.54-28,28.01-28z"/>
</g>
<path class="st1" d="M20.18-24.25c1.48,0,2.61,0.33,3.39,0.99c0.79,0.66,1.18,1.62,1.18,2.87c0,0.81-0.19,1.52-0.58,2.15
	c-0.39,0.63-0.94,1.11-1.66,1.46c-0.72,0.35-1.55,0.52-2.49,0.52h-2.27v4.5h-2.5v-12.5H20.18z M17.75-18.25h1.98
	c0.77,0,1.36-0.17,1.75-0.52c0.39-0.35,0.59-0.86,0.59-1.53c0-1.3-0.76-1.95-2.27-1.95h-2.06V-18.25z"/>
<g>
	<path class="st0" d="M28.01,32H11.99c-5.52,0-10,4.48-10,10c0,5.52,4.48,10,10,10h16.03c5.52,0,10-4.48,10-10
		C38.01,36.48,33.54,32,28.01,32z"/>
</g>
<g>
	<path class="st2" d="M14.17,48.86c-0.45,0-0.8-0.23-0.96-0.61c-0.26-0.63,0.11-1.5,1.02-2.39c0.71-0.69,1.7-1.26,2.95-1.7
		c0.66-1.23,1.27-2.55,1.7-3.67c-0.95-1.47-1.12-3.29-0.79-4.31c0.21-0.66,0.59-0.9,0.86-1c0.38-0.13,0.77-0.03,1.04,0.26
		c0.41,0.44,0.56,1.32,0.46,2.71c-0.04,0.55-0.22,1.29-0.54,2.2c0.01,0.02,0.03,0.04,0.04,0.05c0.21,0.26,0.44,0.55,0.68,0.85
		c0.51,0.65,1.09,1.37,1.67,2.02c0.17-0.01,0.34-0.01,0.5-0.01c2.07,0,3.46,0.43,3.91,1.22c0.19,0.34,0.2,0.71,0.01,1.04
		c-0.25,0.44-0.8,0.7-1.46,0.7h0c-0.16,0-0.33-0.02-0.49-0.05c-0.83-0.15-1.74-0.78-2.86-1.97c-0.29,0.02-0.59,0.04-0.89,0.07
		c-0.66,0.06-1.93,0.23-3.22,0.64c-0.55,1-1.75,3.02-2.64,3.6C14.84,48.75,14.49,48.86,14.17,48.86z M16.44,45.46
		c-0.64,0.31-1.16,0.66-1.57,1.06c-0.8,0.79-0.86,1.28-0.81,1.39c0.01,0.03,0.07,0.04,0.11,0.04c0.14,0,0.32-0.07,0.5-0.19
		C15.07,47.5,15.73,46.64,16.44,45.46z M23.19,44.2c0.69,0.64,1.27,1,1.76,1.09c0.11,0.02,0.22,0.03,0.33,0.03c0,0,0,0,0,0
		c0.36,0,0.6-0.12,0.66-0.24c0.01-0.02,0.03-0.05-0.01-0.12C25.77,44.69,25.03,44.26,23.19,44.2z M19.53,41.35
		c-0.32,0.78-0.71,1.63-1.13,2.46c1.05-0.26,1.99-0.38,2.54-0.43c0.07-0.01,0.14-0.01,0.21-0.02c-0.44-0.51-0.85-1.04-1.24-1.53
		C19.78,41.67,19.65,41.5,19.53,41.35z M19.28,36.05c-0.01,0-0.02,0-0.04,0.01c-0.1,0.03-0.21,0.19-0.28,0.41
		c-0.22,0.67-0.13,1.8,0.32,2.85c0.15-0.49,0.23-0.91,0.25-1.22c0.11-1.54-0.14-1.93-0.22-2.02C19.3,36.05,19.29,36.05,19.28,36.05z
		"/>
</g>
<g>
	<path class="st0" d="M-21.99,2h-16.03c-5.52,0-10,4.48-10,10c0,5.52,4.48,10,10,10h16.03c5.52,0,10-4.48,10-10
		C-11.99,6.48-16.46,2-21.99,2z"/>
</g>
<g>
	<polygon class="st3" points="-29.22,8.26 -25.64,8.26 -25.64,6.79 -29.22,6.79 -29.22,5.15 -30.78,5.15 -30.78,6.79 -34.36,6.79 
		-34.36,8.26 -30.78,8.26 	"/>
	<polygon class="st3" points="-33.1,17.39 -33.1,15.36 -34.65,15.36 -34.65,17.39 -34.65,18.85 -33.1,18.85 -25.35,18.85 
		-25.35,17.39 	"/>
	<path class="st3" d="M-27.14,11.49c0-1.64-1.33-2.96-2.96-2.96c-1.64,0-2.96,1.33-2.96,2.96c0,1.64,1.33,2.96,2.96,2.96
		C-28.47,14.45-27.14,13.12-27.14,11.49z M-30.1,12.92c-0.79,0-1.44-0.64-1.44-1.44c0-0.79,0.64-1.44,1.44-1.44s1.44,0.64,1.44,1.44
		C-28.66,12.28-29.31,12.92-30.1,12.92z"/>
	<circle class="st3" cx="-30.04" cy="15.74" r="0.98"/>
</g>
<g>
	<path class="st4" d="M31.77,7.7c-0.28-0.32-0.68-0.52-1.1-0.54V3.89c0-1.59-1.3-2.89-2.89-2.89h-4.69c-1.56,0-2.39,0.66-3,1.14
		c-0.49,0.39-0.78,0.62-1.41,0.62H11.9c-1.42,0-2.58,1.13-2.58,2.51v1.89C8.9,7.18,8.5,7.38,8.23,7.7c-0.3,0.35-0.43,0.8-0.36,1.25
		l1.88,12.7C9.86,22.43,10.52,23,11.3,23H28.7c0.78,0,1.44-0.57,1.55-1.34l1.88-12.7C32.21,8.51,32.07,8.05,31.77,7.7z"/>
	<g>
		<path class="st0" d="M28.06,4.65h-16.2c-0.34,0-0.69,0.23-0.69,0.62v0.62v1.27h17.57V5.89V5.27C28.75,4.88,28.4,4.65,28.06,4.65z"
			/>
	</g>
	<path class="st5" d="M9.33,7.16C8.9,7.18,8.5,7.38,8.23,7.7c-0.3,0.35-0.43,0.8-0.36,1.25l1.88,12.7C9.86,22.43,10.52,23,11.3,23
		H28.7c0.78,0,1.44-0.57,1.55-1.34l1.88-12.7c0.07-0.45-0.07-0.91-0.36-1.25c-0.28-0.32-0.68-0.52-1.1-0.54l-1.89,0H11.22L9.33,7.16
		z"/>
</g>
</svg>
