<?xml version="1.0" encoding="utf-8"?>
<!-- Generator: Adobe Illustrator 24.2.3, SVG Export Plug-In . SVG Version: 6.00 Build 0)  -->
<svg version="1.1" id="레이어_1" xmlns="http://www.w3.org/2000/svg" xmlns:xlink="http://www.w3.org/1999/xlink" x="0px"
	 y="0px" viewBox="0 0 20 20" style="enable-background:new 0 0 20 20;" xml:space="preserve">
<style type="text/css">
	.st0{fill:#AEB3C1;}
	.st1{fill:#FFFFFF;}
	.st2{fill:#F7546F;}
</style>
<g>
	<path class="st0" d="M30,18c-4.42,0-8-3.58-8-8s3.58-8,8-8c4.42,0,8,3.58,8,8S34.42,18,30,18z"/>
	<g id="XMLID_967_">
		<path class="st1" d="M34.55,7.22l-1.78-1.78c-0.27-0.27-0.7-0.27-0.97,0c-0.13,0.13-0.2,0.3-0.2,0.49c0,0.13,0.04,0.26,0.11,0.37
			l-2.38,2.05c-0.25-0.11-0.51-0.18-0.79-0.18c-0.5,0-0.98,0.2-1.33,0.55c-0.26,0.26-0.26,0.67,0,0.93l1.07,1.07l-2.53,3.52
			l3.52-2.53l1.07,1.07c0.26,0.26,0.67,0.26,0.93,0c0.35-0.35,0.55-0.83,0.55-1.33c0-0.28-0.06-0.54-0.18-0.79l2.05-2.38
			c0.11,0.07,0.24,0.11,0.37,0.11c0.18,0,0.36-0.07,0.49-0.2C34.82,7.93,34.82,7.49,34.55,7.22z"/>
	</g>
</g>
<g>
	<path class="st2" d="M10,18c-4.42,0-8-3.58-8-8s3.58-8,8-8c4.42,0,8,3.58,8,8S14.42,18,10,18z"/>
	<g id="XMLID_969_">
		<path class="st1" d="M14.55,7.22l-1.78-1.78c-0.27-0.27-0.7-0.27-0.97,0c-0.13,0.13-0.2,0.3-0.2,0.49c0,0.13,0.04,0.26,0.11,0.37
			L9.33,8.35C9.08,8.24,8.82,8.17,8.54,8.17c-0.5,0-0.98,0.2-1.33,0.55c-0.26,0.26-0.26,0.67,0,0.93l1.07,1.07l-2.53,3.52l3.52-2.53
			l1.07,1.07c0.26,0.26,0.67,0.26,0.93,0c0.35-0.35,0.55-0.83,0.55-1.33c0-0.28-0.06-0.54-0.18-0.79l2.05-2.38
			c0.11,0.07,0.24,0.11,0.37,0.11c0.18,0,0.36-0.07,0.49-0.2C14.82,7.93,14.82,7.49,14.55,7.22z"/>
	</g>
</g>
</svg>
