<?xml version="1.0" encoding="utf-8"?>
<!-- Generator: Adobe Illustrator 24.2.3, SVG Export Plug-In . SVG Version: 6.00 Build 0)  -->
<svg version="1.1" id="레이어_1" xmlns="http://www.w3.org/2000/svg" xmlns:xlink="http://www.w3.org/1999/xlink" x="0px"
	 y="0px" viewBox="0 0 40 24" style="enable-background:new 0 0 40 24;" xml:space="preserve">
<style type="text/css">
	.st0{fill:#177ABC;}
	.st1{fill:#FFFFFF;}
	.st2{fill:#29A7D8;}
	.st3{fill:#C43E1C;}
	.st4{fill:#EE3E36;stroke:#EE3E36;stroke-width:0.3;stroke-miterlimit:10;}
	.st5{fill:#13AAE5;}
</style>
<g>
	<path class="st0" d="M97.58,54.98c-0.28-0.32-0.68-0.52-1.1-0.54v-3.27c0-1.59-1.3-2.89-2.89-2.89H88.9c-1.56,0-2.39,0.66-3,1.14
		c-0.49,0.39-0.78,0.62-1.41,0.62h-6.78c-1.42,0-2.58,1.13-2.58,2.51v1.89c-0.42,0.02-0.82,0.22-1.1,0.54
		c-0.3,0.35-0.43,0.8-0.36,1.25l1.88,12.7c0.12,0.78,0.78,1.35,1.56,1.35h17.4c0.78,0,1.44-0.57,1.55-1.34l1.88-12.7
		C98.02,55.79,97.88,55.33,97.58,54.98z"/>
	<g>
		<path class="st1" d="M93.87,51.93h-16.2c-0.34,0-0.69,0.23-0.69,0.62v0.62v1.27h17.57v-1.27v-0.62
			C94.56,52.16,94.21,51.93,93.87,51.93z"/>
	</g>
	<path class="st2" d="M75.14,54.44c-0.42,0.02-0.82,0.22-1.1,0.54c-0.3,0.35-0.43,0.8-0.36,1.25l1.88,12.7
		c0.11,0.78,0.77,1.35,1.55,1.35h17.4c0.78,0,1.44-0.57,1.55-1.34l1.88-12.7c0.07-0.45-0.07-0.91-0.36-1.25
		c-0.28-0.32-0.68-0.52-1.1-0.54h-1.89H77.03L75.14,54.44z"/>
</g>
<g>
	<g>
		<path class="st1" d="M-21.99,2.25h-16.03c-5.52,0-10,4.48-10,10c0,5.52,4.48,10,10,10h16.03c5.52,0,10-4.48,10-10
			C-11.99,6.73-16.46,2.25-21.99,2.25z"/>
	</g>
	<path class="st3" d="M-29.03,6c1.48,0,2.61,0.33,3.39,0.99c0.79,0.66,1.18,1.62,1.18,2.87c0,0.81-0.19,1.52-0.58,2.15
		c-0.39,0.63-0.94,1.11-1.66,1.46c-0.72,0.35-1.55,0.52-2.49,0.52h-2.27v4.5h-2.5V6H-29.03z M-31.46,12h1.98
		c0.77,0,1.36-0.17,1.75-0.52c0.39-0.35,0.59-0.86,0.59-1.53c0-1.3-0.76-1.95-2.27-1.95h-2.06V12z"/>
</g>
<g>
	<g>
		<path class="st1" d="M28.01-28H11.99c-5.52,0-10,4.48-10,10c0,5.52,4.48,10,10,10h16.03c5.52,0,10-4.48,10-10
			C38.01-23.52,33.54-28,28.01-28z"/>
	</g>
	<g>
		<path class="st4" d="M14.11-11.02c-0.45,0-0.8-0.23-0.96-0.61c-0.26-0.63,0.11-1.5,1.02-2.39c0.71-0.69,1.7-1.26,2.95-1.7
			c0.66-1.23,1.27-2.55,1.7-3.67c-0.95-1.47-1.12-3.29-0.79-4.31c0.21-0.66,0.59-0.9,0.86-1c0.38-0.13,0.77-0.03,1.04,0.26
			c0.41,0.44,0.56,1.32,0.46,2.71c-0.04,0.55-0.22,1.29-0.54,2.2c0.01,0.02,0.03,0.04,0.04,0.05c0.21,0.26,0.44,0.55,0.68,0.85
			c0.51,0.65,1.09,1.37,1.67,2.02c0.17-0.01,0.34-0.01,0.5-0.01c2.07,0,3.46,0.43,3.91,1.22c0.19,0.34,0.2,0.71,0.01,1.04
			c-0.25,0.44-0.8,0.7-1.46,0.7h0c-0.16,0-0.33-0.02-0.49-0.05c-0.83-0.15-1.74-0.78-2.86-1.97c-0.29,0.02-0.59,0.04-0.89,0.07
			c-0.66,0.06-1.93,0.23-3.22,0.64c-0.55,1-1.75,3.02-2.64,3.6C14.77-11.14,14.43-11.02,14.11-11.02z M16.38-14.43
			c-0.64,0.31-1.16,0.66-1.57,1.06c-0.8,0.79-0.86,1.28-0.81,1.39c0.01,0.03,0.07,0.04,0.11,0.04c0.14,0,0.32-0.07,0.5-0.19
			C15.01-12.38,15.66-13.25,16.38-14.43z M23.13-15.68c0.69,0.64,1.27,1,1.76,1.09c0.11,0.02,0.22,0.03,0.33,0.03c0,0,0,0,0,0
			c0.36,0,0.6-0.12,0.66-0.24c0.01-0.02,0.03-0.05-0.01-0.12C25.71-15.19,24.96-15.63,23.13-15.68z M19.46-18.54
			c-0.32,0.78-0.71,1.63-1.13,2.46c1.05-0.26,1.99-0.38,2.54-0.43c0.07-0.01,0.14-0.01,0.21-0.02c-0.44-0.51-0.85-1.04-1.24-1.53
			C19.72-18.22,19.59-18.38,19.46-18.54z M19.22-23.84c-0.01,0-0.02,0-0.04,0.01c-0.1,0.03-0.21,0.19-0.28,0.41
			c-0.22,0.67-0.13,1.8,0.32,2.85c0.15-0.49,0.23-0.91,0.25-1.22c0.11-1.54-0.14-1.93-0.22-2.02
			C19.23-23.84,19.22-23.84,19.22-23.84z"/>
	</g>
</g>
<g>
	<g>
		<path class="st1" d="M28.01,2H11.99c-5.52,0-10,4.48-10,10c0,5.52,4.48,10,10,10h16.03c5.52,0,10-4.48,10-10
			C38.01,6.48,33.54,2,28.01,2z"/>
	</g>
	<g>
		<polygon class="st5" points="20.87,8.26 24.45,8.26 24.45,6.79 20.87,6.79 20.87,5.15 19.31,5.15 19.31,6.79 15.73,6.79 
			15.73,8.26 19.31,8.26 		"/>
		<polygon class="st5" points="16.99,17.39 16.99,15.36 15.43,15.36 15.43,17.39 15.43,18.85 16.99,18.85 24.74,18.85 24.74,17.39 
					"/>
		<path class="st5" d="M22.95,11.49c0-1.64-1.33-2.96-2.96-2.96c-1.64,0-2.96,1.33-2.96,2.96c0,1.64,1.33,2.96,2.96,2.96
			C21.62,14.45,22.95,13.12,22.95,11.49z M19.98,12.92c-0.79,0-1.44-0.64-1.44-1.44c0-0.79,0.64-1.44,1.44-1.44s1.44,0.64,1.44,1.44
			C21.42,12.28,20.78,12.92,19.98,12.92z"/>
		<circle class="st5" cx="20.04" cy="15.74" r="0.98"/>
	</g>
</g>
</svg>
