<?xml version="1.0" encoding="utf-8"?>
<!-- Generator: Adobe Illustrator 24.2.3, SVG Export Plug-In . SVG Version: 6.00 Build 0)  -->
<svg version="1.1" id="레이어_1" xmlns="http://www.w3.org/2000/svg" xmlns:xlink="http://www.w3.org/1999/xlink" x="0px"
	 y="0px" viewBox="0 0 40 24" style="enable-background:new 0 0 40 24;" xml:space="preserve">
<style type="text/css">
	.st0{fill:#177ABC;}
	.st1{fill:#FFFFFF;}
	.st2{fill:#29A7D8;}
	.st3{fill:#C43E1C;}
</style>
<g>
	<path class="st0" d="M97.58,54.98c-0.28-0.32-0.68-0.52-1.1-0.54v-3.27c0-1.59-1.3-2.89-2.89-2.89H88.9c-1.56,0-2.39,0.66-3,1.14
		c-0.49,0.39-0.78,0.62-1.41,0.62h-6.78c-1.42,0-2.58,1.13-2.58,2.51v1.89c-0.42,0.02-0.82,0.22-1.1,0.54
		c-0.3,0.35-0.43,0.8-0.36,1.25l1.88,12.7c0.12,0.78,0.78,1.35,1.56,1.35h17.4c0.78,0,1.44-0.57,1.55-1.34l1.88-12.7
		C98.02,55.79,97.88,55.33,97.58,54.98z"/>
	<g>
		<path class="st1" d="M93.87,51.93h-16.2c-0.34,0-0.69,0.23-0.69,0.62v0.62v1.27h17.57v-1.27v-0.62
			C94.56,52.16,94.21,51.93,93.87,51.93z"/>
	</g>
	<path class="st2" d="M75.14,54.44c-0.42,0.02-0.82,0.22-1.1,0.54c-0.3,0.35-0.43,0.8-0.36,1.25l1.88,12.7
		c0.11,0.78,0.77,1.35,1.55,1.35h17.4c0.78,0,1.44-0.57,1.55-1.34l1.88-12.7c0.07-0.45-0.07-0.91-0.36-1.25
		c-0.28-0.32-0.68-0.52-1.1-0.54h-1.89H77.03L75.14,54.44z"/>
</g>
<g>
	<g>
		<path class="st1" d="M28.01,2.25H11.99c-5.52,0-10,4.48-10,10c0,5.52,4.48,10,10,10h16.03c5.52,0,10-4.48,10-10
			C38.01,6.73,33.54,2.25,28.01,2.25z"/>
	</g>
	<path class="st3" d="M20.97,6c1.48,0,2.61,0.33,3.39,0.99c0.79,0.66,1.18,1.62,1.18,2.87c0,0.81-0.19,1.52-0.58,2.15
		c-0.39,0.63-0.94,1.11-1.66,1.46C22.59,13.83,21.76,14,20.82,14h-2.27v4.5h-2.5V6H20.97z M18.54,12h1.98
		c0.77,0,1.36-0.17,1.75-0.52c0.39-0.35,0.59-0.86,0.59-1.53c0-1.3-0.76-1.95-2.27-1.95h-2.06V12z"/>
</g>
</svg>
