<?xml version="1.0" encoding="utf-8"?>
<!-- Generator: Adobe Illustrator 24.2.3, SVG Export Plug-In . SVG Version: 6.00 Build 0)  -->
<svg version="1.1" id="레이어_1" xmlns="http://www.w3.org/2000/svg" xmlns:xlink="http://www.w3.org/1999/xlink" x="0px"
	 y="0px" viewBox="0 0 1280 720" style="enable-background:new 0 0 1280 720;" xml:space="preserve">
<style type="text/css">
	.st0{clip-path:url(#SVGID_2_);}
	.st1{fill:#333333;}
	.st2{opacity:0.1;clip-path:url(#SVGID_2_);}
	.st3{fill:none;stroke:#000000;stroke-width:3;stroke-linecap:round;stroke-linejoin:round;stroke-miterlimit:10;}
</style>
<g>
	<defs>
		<rect id="SVGID_1_" x="-1" y="-1" width="1282" height="722"/>
	</defs>
	<clipPath id="SVGID_2_">
		<use xlink:href="#SVGID_1_"  style="overflow:visible;"/>
	</clipPath>
	<g class="st0">
		<rect x="-1" y="-1" class="st1" width="1282" height="722"/>
	</g>
	<g class="st2">
		<g>
			<g>
				<g>
					<path class="st1" d="M1267.23,796.03l-7.97-5.91c3.36-7.81,5.54-16.03,7.24-24.47c2.7-13.42,5.04-26.24,4.94-38.47l6.95-3.02
						c12.57-4.02,17.45-23.87,10.89-44.33c-6.55-20.45-22.05-33.77-34.61-29.75l-7.18,0.99c-3.43-4.2-4.77-5.49-8.57-9.79
						c-0.8-0.9-5.53-5.91-6.52-6.52c-4.1-4.82-24.08-24.27-61.79-37.91c0,0-11.43,10.04-35.84,8.86c0,0-0.62,12.19-1.4,24.82
						c-61.01,10.3-108.05,59.79-114.52,124.32c-3.21,32.04,3.5,63.36,20.32,88.07c6.7,9.84,55.47,37.23,106.99,30.66
						c19.23-2.45,40.8-6.99,63.09-24.43l14.71,11.54c10.96,7.34,29.54-1.19,41.48-19.05
						C1277.41,823.79,1278.2,803.36,1267.23,796.03z M1041.48,714.77c2.18-16.79,16.05-28.83,30.98-26.88
						c14.93,1.94,25.25,17.13,23.07,33.92c-2.19,16.79-16.06,28.83-30.98,26.88C1049.62,746.75,1039.3,731.56,1041.48,714.77z
						 M1107.06,828.13c-8.15,6.8-22.28,3.3-31.56-7.82c-9.28-11.13-10.2-25.65-2.06-32.45c8.14-6.8,22.28-3.3,31.56,7.82
						C1114.28,806.8,1115.21,821.33,1107.06,828.13z M1190.17,786.71c-14.93-1.94-25.25-17.13-23.07-33.92
						c2.19-16.79,16.06-28.82,30.98-26.88c14.93,1.94,25.26,17.13,23.07,33.92C1218.98,776.62,1205.1,788.66,1190.17,786.71z"/>
				</g>
			</g>
		</g>
		<g>
			<g>
				<g>
					<g>
						<path class="st3" d="M1019.94,822.38c22.95,27.96,56.57,47.19,95.4,51.09c77.95,7.82,147.44-48.99,155.25-126.89
							c0.66-6.59,0.85-13.12,0.61-19.56l5.15-1.47c12.76-3.69,18.16-23.09,12.81-43.89c-5.34-20.8-19.2-34.43-32.99-32.1
							l-10.61,1.45c-17.92-25.5-44.13-45.01-75.19-54.32"/>
						<path class="st3" d="M999.72,675.32c13.93-31.66,38.98-56.9,69.76-71.32"/>
						<path class="st3" d="M992.18,767.78c2.01,7.79,4.71,15.46,7.95,22.68l-10.11,7.67c-10.22,8.35-7.47,28.6,6.13,45.23
							c13.6,16.63,32.9,23.34,43.12,14.99l10.3-6.8"/>
						<path class="st3" d="M1183.67,784.43c-14.31-4.92-21.43-21.93-15.91-37.97c5.53-16.04,21.6-25.05,35.91-20.12
							c14.32,4.93,21.44,21.93,15.92,37.97"/>
						<path class="st3" d="M1076.33,820.66c-9.88-10.85-11.55-25.42-3.73-32.54c7.83-7.14,22.18-4.12,32.06,6.72
							c9.89,10.85,11.57,25.42,3.74,32.56"/>
						<g>
							<path class="st3" d="M1171.32,587.71c0,0-5.83,31.48,8.17,48.6"/>
							<path class="st3" d="M1101.91,580.75c0,0-0.43,32.02-17.55,46.02"/>
						</g>
						<path class="st3" d="M1118.49,564.77c5.89-1.87,12.91-2.61,20.32-1.87c19.17,1.92,33.76,13.03,32.58,24.81
							c-1.18,11.78-17.68,19.76-36.86,17.84c-19.18-1.92-33.8-13.03-32.62-24.81"/>
						<g>
							<g>
								<path class="st3" d="M987.99,674.44c0,0,27.92,6.37,43.68-5.88"/>
								<path class="st3" d="M979.43,737.56c0,0,28.59,1.3,40.54,17.29"/>
							</g>
							<path class="st3" d="M987.98,674.5c10.48,1.43,17.07,16.68,14.71,34.07c-2.36,17.39-12.77,30.34-23.25,28.92
								c-10.49-1.42-17.06-16.67-14.7-34.07c0.81-5.96,2.57-11.41,4.94-15.93"/>
						</g>
						<path class="st3" d="M1063.91,748.26c-14.98-2.23-25.09-17.64-22.58-34.42c2.48-16.78,16.64-28.58,31.61-26.36
							c14.98,2.22,25.08,17.63,22.59,34.41"/>
						<g>
							<g>
								<path class="st3" d="M1103.64,654.07c-0.24,2.39,1.51,4.52,3.9,4.76c2.38,0.24,4.54-1.5,4.78-3.89
									c0.24-2.39-1.53-4.52-3.91-4.76C1106.02,649.93,1103.88,651.67,1103.64,654.07z"/>
							</g>
						</g>
						<g>
							<g>
								<path class="st3" d="M1206.33,685.26c-0.24,2.39,1.5,4.52,3.89,4.76c2.4,0.24,4.55-1.5,4.79-3.89
									c0.24-2.39-1.53-4.52-3.92-4.76C1208.7,681.12,1206.57,682.86,1206.33,685.26z"/>
							</g>
						</g>
						<g>
							<g>
								<path class="st3" d="M1129.43,706.19c-0.24,2.39,1.5,4.52,3.89,4.76c2.38,0.24,4.54-1.5,4.78-3.89
									c0.24-2.39-1.53-4.52-3.91-4.76C1131.8,702.06,1129.67,703.8,1129.43,706.19z"/>
							</g>
						</g>
						<g>
							<g>
								<path class="st3" d="M1148.38,826.38c-0.24,2.39,1.5,4.52,3.89,4.76c2.38,0.24,4.54-1.5,4.78-3.89
									c0.24-2.4-1.53-4.52-3.91-4.76C1150.75,822.24,1148.62,823.98,1148.38,826.38z"/>
							</g>
						</g>
					</g>
					<path class="st3" d="M1259.71,789.86l7.28,6.02c10.96,7.33,10.18,27.75-1.76,45.61c-11.95,17.86-30.52,26.39-41.48,19.05
						l-13.71-10.45"/>
				</g>
			</g>
		</g>
	</g>
	<g class="st2">
		<g>
			<g>
				<g>
					<path class="st1" d="M274.91,61.67l-7.87-6.75c4.07-7.89,6.95-16.31,9.34-24.97c3.8-13.79,7.18-26.98,7.97-39.74l7.47-2.64
						c13.4-3.27,19.94-23.6,14.6-45.41c-5.33-21.8-20.51-36.82-33.9-33.55l-7.55,0.51c-3.27-4.63-4.57-6.08-8.22-10.83
						c-0.76-0.99-5.33-6.57-6.32-7.28c-3.92-5.32-23.32-27.07-61.63-44.04c0,0-12.65,9.62-38.01,6.61c0,0-1.54,12.66-3.28,25.77
						C83.17-114.4,30.52-66.26,19.04,0.53c-5.7,33.17-1,66.3,14.73,93.29c6.26,10.75,55.09,42.87,109.28,39.8
						c20.22-1.15,43.05-4.3,67.56-20.84l14.49,13.11c10.89,8.46,30.88,0.93,44.64-16.82C283.49,91.34,285.81,70.11,274.91,61.67z
						 M45.56-39.59c3.5-17.34,18.84-28.87,34.26-25.75c15.42,3.12,25.06,19.71,21.56,37.05C97.86-10.96,82.53,0.57,67.11-2.55
						C51.7-5.66,42.04-22.25,45.56-39.59z M105.6,83.38c-8.99,6.49-23.46,1.8-32.33-10.47c-8.86-12.28-8.76-27.49,0.24-33.98
						c8.98-6.49,23.46-1.81,32.33,10.47C114.69,61.68,114.59,76.89,105.6,83.38z M195.27,46.3c-15.42-3.12-25.06-19.71-21.56-37.05
						c3.51-17.34,18.85-28.87,34.27-25.75c15.42,3.12,25.07,19.71,21.56,37.05C226.03,37.89,210.69,49.42,195.27,46.3z"/>
				</g>
			</g>
		</g>
		<g>
			<g>
				<g>
					<g>
						<path class="st3" d="M15.21,71c21.87,30.83,55.51,53.34,95.7,60.25c80.68,13.86,157.28-40.26,171.13-120.88
							c1.17-6.82,1.85-13.61,2.07-20.34l5.48-1.15c13.57-2.91,20.63-22.74,16.57-44.81c-4.04-22.07-17.49-37.29-32.04-35.88
							l-11.16,0.73c-16.81-27.9-42.7-50.16-74.4-62.13"/>
						<path class="st3" d="M4.91-83.78c16.84-31.98,44.8-56.46,77.94-69.23"/>
						<path class="st3" d="M-9.72,12.05c1.52,8.26,3.78,16.46,6.62,24.22l-11.11,7.25c-11.27,7.95-9.88,29.26,3.07,47.59
							c12.96,18.33,32.59,26.74,43.84,18.78l11.23-6.34"/>
						<path class="st3" d="M188.66,43.44c-14.55-6.18-20.73-24.43-13.8-40.75c6.94-16.32,24.35-24.52,38.9-18.34
							c14.57,6.19,20.75,24.43,13.81,40.75"/>
						<path class="st3" d="M74.12,73.34c-9.5-12.03-10.18-27.35-1.5-34.2c8.69-6.87,23.43-2.67,32.93,9.35
							c9.51,12.03,10.19,27.35,1.51,34.21"/>
						<g>
							<path class="st3" d="M190.21-162.52c0,0-8.39,32.39,4.95,51.26"/>
							<path class="st3" d="M118.37-174.86c0,0-2.8,33.35-21.67,46.69"/>
						</g>
						<path class="st3" d="M136.82-190.3c6.27-1.51,13.65-1.77,21.32-0.45c19.84,3.41,34.24,16.06,32.14,28.25
							c-2.09,12.19-19.88,19.3-39.73,15.89c-19.85-3.41-34.28-16.06-32.18-28.25"/>
						<g>
							<g>
								<path class="st3" d="M-7.25-85.56c0,0,28.63,8.69,45.96-2.92"/>
								<path class="st3" d="M-20.79-20.39c0,0,29.71,3.45,40.99,21"/>
							</g>
							<path class="st3" d="M-7.26-85.49C3.56-83.23,9.31-66.86,5.57-48.9C1.84-30.95-9.96-18.21-20.78-20.46
								c-10.83-2.25-16.56-18.63-12.83-36.59c1.28-6.16,3.52-11.7,6.32-16.25"/>
						</g>
						<path class="st3" d="M66.48-3.04C51.03-6.46,41.61-23.27,45.46-40.58c3.81-17.31,19.44-28.57,34.88-25.16
							c15.45,3.41,24.85,20.22,21.03,37.53"/>
						<g>
							<g>
								<path class="st3" d="M114.8-98.31c-0.43,2.47,1.24,4.83,3.72,5.25c2.47,0.42,4.84-1.23,5.26-3.71
									c0.43-2.48-1.26-4.83-3.73-5.25C117.58-102.44,115.22-100.79,114.8-98.31z"/>
							</g>
						</g>
						<g>
							<g>
								<path class="st3" d="M219.56-58.27c-0.43,2.47,1.24,4.82,3.71,5.25c2.48,0.43,4.85-1.23,5.28-3.7
									c0.43-2.48-1.26-4.83-3.74-5.25C222.33-62.4,219.98-60.75,219.56-58.27z"/>
							</g>
						</g>
						<g>
							<g>
								<path class="st3" d="M137.85-42.09c-0.43,2.47,1.24,4.82,3.71,5.25c2.47,0.42,4.84-1.23,5.26-3.71
									c0.43-2.48-1.26-4.83-3.73-5.25C140.63-46.22,138.28-44.57,137.85-42.09z"/>
							</g>
						</g>
						<g>
							<g>
								<path class="st3" d="M148.8,84.58c-0.42,2.47,1.24,4.82,3.71,5.25c2.47,0.42,4.84-1.23,5.26-3.71
									c0.43-2.48-1.26-4.83-3.73-5.25C151.57,80.45,149.22,82.1,148.8,84.58z"/>
							</g>
						</g>
					</g>
					<path class="st3" d="M267.52,54.67l7.15,6.81c10.89,8.44,8.57,29.67-5.18,47.41c-13.76,17.75-33.75,25.27-44.64,16.82
						l-13.52-11.9"/>
				</g>
			</g>
		</g>
	</g>
</g>
</svg>
