<svg xmlns="http://www.w3.org/2000/svg" viewBox="0 0 28.97 15"><defs><style>.cls-1{fill:#c1c1c1;}.cls-2{fill:#fff;}</style></defs><g id="Layer_2" data-name="Layer 2"><g id="레이어_1" data-name="레이어 1"><rect class="cls-1" width="28.97" height="15" rx="7.5"/><path class="cls-2" d="M13.77,3.23V7.87h-.94V6H10.65a3.05,3.05,0,0,1-1.6,1.25,7.63,7.63,0,0,1-2.64.41V6.82a5.54,5.54,0,0,0,2.73-.58,1.86,1.86,0,0,0,1-1.7V4.28H6.41V3.44h4.66v.93a5.1,5.1,0,0,1-.07.74h1.83V3.23ZM6.88,8.34h6.89v3.32H6.88Zm.94,2.48h5V9.18h-5Z"/><path class="cls-2" d="M14.79,8.25V7.33A2,2,0,0,0,16.12,6a7.34,7.34,0,0,0,.42-2.69l.9,0a9.77,9.77,0,0,1-.2,2l1.92,2.15-.64.61L17,6.35A2.84,2.84,0,0,1,14.79,8.25Zm.69.71h7.08v2.81h-.93v-2H15.48Zm7.08-5.73V8.49h-.89V6.09H20.3V8.4h-.89V3.28h.89V5.16h1.37V3.23Z"/></g></g></svg>