<?xml version="1.0" encoding="utf-8"?>
<!-- Generator: Adobe Illustrator 24.2.3, SVG Export Plug-In . SVG Version: 6.00 Build 0)  -->
<svg version="1.1" id="레이어_1" xmlns="http://www.w3.org/2000/svg" xmlns:xlink="http://www.w3.org/1999/xlink" x="0px"
	 y="0px" viewBox="0 0 25 25" style="enable-background:new 0 0 25 25;" xml:space="preserve">
<style type="text/css">
	.st0{fill:#FFFFFF;}
</style>
<g>
	<g>
		<path class="st0" d="M12.5,1.5c-6.08,0-11,4.92-11,11c0,6.08,4.92,11,11,11c6.08,0,11-4.92,11-11C23.5,6.42,18.58,1.5,12.5,1.5z
			 M13.76,19.38h-2.73v-2.67h2.73V19.38z M13.9,14.26c-0.21,0.21-0.16,0.93-0.16,1.06c-0.36,0-2.74,0-2.74,0
			c-0.11-2.9,2.16-3.78,2.72-4.09c0.56-0.31,1.16-0.36,1.16-1.11c0-0.76-0.65-1.76-2.5-1.76c-1.87,0-2.2,2.06-2.2,2.06l-2.75-0.41
			c0.6-3.54,3.07-4.39,4.93-4.39c1.77,0,5.19,0.96,5.19,4.35S14.11,14.05,13.9,14.26z"/>
	</g>
</g>
</svg>
