<?xml version="1.0" encoding="utf-8"?>
<!-- Generator: Adobe Illustrator 23.1.0, SVG Export Plug-In . SVG Version: 6.00 Build 0)  -->
<svg version="1.1" id="레이어_1" xmlns="http://www.w3.org/2000/svg" xmlns:xlink="http://www.w3.org/1999/xlink" x="0px"
	 y="0px" viewBox="0 0 28 28" enable-background="new 0 0 28 28" xml:space="preserve">
<g>
	<rect x="-28.5" y="-28.5" fill="#DC1D00" width="25" height="25"/>
	<path fill="#FFFFFF" d="M-8.9-13.8c0-0.1-0.1-1.3-2.1-1.2c-2,0-2.5,0.2-2.5,0.2s-1.5-1.5-2.1-2.8c0,0,0.7-2,0.6-3.2
		c0-1.2-0.3-2-1.3-1.9c-1,0-1.1,0.8-1,2.1c0.1,1.1,0.7,2.4,0.7,2.4s-0.4,1.4-1,2.7c-0.6,1.4-1,2.1-1,2.1s-2,0.7-2.8,1.5
		c-0.9,0.8-1.2,1.4-0.8,2c0.4,0.5,1.7,0.6,3-0.9s1.8-2.6,1.8-2.6s1.8-0.5,2.4-0.6c0.6-0.1,1.3-0.2,1.3-0.2s1.7,1.7,3.3,1.6
		C-8.8-12.8-8.9-13.7-8.9-13.8 M-21.7-10.2c-1-0.6,2.1-2.5,2.7-2.5C-19.1-12.7-20.7-9.6-21.7-10.2 M-16.9-21.1c0-1,0.3-1.3,0.6-1.3
		c0.2,0,0.5,0.1,0.5,1c0,0.9-0.5,2.5-0.5,2.5C-16.6-19-16.9-20.1-16.9-21.1 M-15.6-14.3c-1,0.2-1.5,0.5-1.5,0.5l0.4-0.9
		c0.4-0.9,0.8-2.2,0.8-2.2c0.6,1.1,1.7,2.3,1.7,2.3S-14.6-14.6-15.6-14.3 M-13.2-14.4c0,0,3.3-0.6,3.3,0.5
		C-9.9-12.8-11.9-13.2-13.2-14.4"/>
</g>
<g>
	<path fill="#D24625" d="M3-24.8l11.6-2H16v2.3h8.2c0,0,0.9,0.1,0.9,0.9v14.8c0,0,0,1-0.9,1H16v2.6h-1.6L3-7.2V-24.8z"/>
	<path fill="#FFFFFF" d="M9.8-20.2L7-20.1v8l1.5,0.2v-2.9h1c0,0,2.3-0.2,2.3-2.7C11.8-20.1,9.8-20.2,9.8-20.2 M8.5-16.2v-2.5
		c0,0,1.7-0.3,1.7,1.2S8.5-16.2,8.5-16.2"/>
	<path fill="#FCFCFC" d="M16-23.7v2.5l1.2-0.3v3.2h3.3c0,0-0.1,3-3.2,3.2c-0.6,0-0.9,0-1.3-0.2v1.5h6v1h-6v1.2h6v1h-6v2.1h8.3v-15.2
		H16z"/>
</g>
<g>
	<rect x="31.5" y="-28.5" fill="#209DDF" width="25" height="25"/>
	<rect x="43.8" y="-23" fill="#FFFFFF" width="1.4" height="2.2"/>
	<rect x="40.2" y="-21.6" fill="#FFFFFF" width="8.5" height="1.4"/>
	<path fill="#FFFFFF" d="M44.4-14.6c-1.5,0-2.7-1.2-2.7-2.7c0-1.5,1.2-2.7,2.7-2.7c1.5,0,2.7,1.2,2.7,2.7
		C47.1-15.8,45.9-14.6,44.4-14.6 M44.4-18.5c-0.7,0-1.3,0.6-1.3,1.3c0,0.7,0.6,1.3,1.3,1.3c0.7,0,1.3-0.6,1.3-1.3
		C45.7-18,45.2-18.5,44.4-18.5"/>
	<path fill="#FFFFFF" d="M45.4-13c0,0.5-0.4,0.9-0.9,0.9c-0.5,0-0.9-0.4-0.9-0.9c0-0.5,0.4-0.9,0.9-0.9C44.9-14,45.4-13.6,45.4-13"
		/>
	<polygon fill="#FFFFFF" points="48.8,-10.2 40.2,-10.2 40.2,-13.4 41.6,-13.4 41.6,-11.6 48.8,-11.6 	"/>
</g>
<g>
	<g>
		<defs>
			<path id="SVGID_1_" d="M-12.6,5.1c-0.1,0-0.1,0-0.2,0c-0.2,0-0.4,0.1-0.5,0.2c-0.8,0.2-1.6,0.5-2.4,0.7c-0.7,0.2-1.4,0.4-2.1,0.7
				c-0.4,0.1-0.6,0.3-0.8,0.6c-0.1,0.2-0.2,0.4-0.2,0.6c0,0,0,0.1,0,0.1c0,1.7,0,3.4,0,5.2v0c-0.1,0-0.1,0-0.2-0.1
				c-0.2-0.1-0.5-0.1-0.7-0.1c-0.3,0-0.6,0.1-0.9,0.2c-0.4,0.2-0.8,0.4-1.1,0.8c-0.2,0.2-0.3,0.5-0.4,0.8c0,0,0,0.1,0,0.1v0.1
				c0,0.1,0,0.2,0,0.2c0.1,0.4,0.3,0.6,0.6,0.8c0.3,0.2,0.5,0.2,0.8,0.3c0,0,0.1,0,0.1,0h0.2c0.1,0,0.1,0,0.2,0c0.4,0,0.7-0.1,1-0.3
				c0.3-0.2,0.5-0.4,0.7-0.7c0.2-0.3,0.3-0.6,0.3-1c0-1.5,0-2.9,0-4.4c0-0.2,0.1-0.4,0.3-0.5c0.1-0.1,0.2-0.1,0.4-0.2
				c0.5-0.2,1.1-0.3,1.6-0.5l2.6-0.8c0.1,0,0.2,0,0.2,0c0.1,0,0.2,0.1,0.2,0.2c0,0,0,0.1,0,0.1c0,1.2,0,2.3,0,3.5v0
				c-0.1,0-0.1,0-0.1-0.1c-0.3-0.1-0.6-0.1-0.9-0.1c-0.3,0-0.6,0.1-0.9,0.2c-0.4,0.2-0.8,0.4-1,0.8c-0.2,0.2-0.3,0.5-0.3,0.7
				c-0.1,0.5,0.1,1,0.6,1.3c0.3,0.2,0.5,0.3,0.9,0.3c0.4,0.1,0.8,0,1.2-0.1c0.5-0.2,0.9-0.4,1.2-0.8c0.2-0.2,0.3-0.5,0.4-0.8
				c0-0.1,0-0.1,0-0.2V5.9c0-0.1,0-0.2,0-0.2c-0.1-0.3-0.4-0.5-0.7-0.6C-12.5,5.1-12.6,5.1-12.6,5.1L-12.6,5.1z"/>
		</defs>
		<clipPath id="SVGID_2_">
			<use xlink:href="#SVGID_1_"  overflow="visible"/>
		</clipPath>
		
			<linearGradient id="SVGID_3_" gradientUnits="userSpaceOnUse" x1="-627.5363" y1="389.7536" x2="-626.5363" y2="389.7536" gradientTransform="matrix(5.937280e-02 14.9595 14.9595 -5.937280e-02 -5810.2935 9414.5127)">
			<stop  offset="0" style="stop-color:#00BEFF"/>
			<stop  offset="1" style="stop-color:#007DFF"/>
		</linearGradient>
		<polygon clip-path="url(#SVGID_2_)" fill="url(#SVGID_3_)" points="-11.8,5 -11.8,16.5 -22.2,16.5 -22.2,5.1 		"/>
	</g>
	<g>
		<defs>
			<rect id="SVGID_4_" x="-28.5" y="20.1" width="25" height="6"/>
		</defs>
		<clipPath id="SVGID_5_">
			<use xlink:href="#SVGID_4_"  overflow="visible"/>
		</clipPath>
		
			<linearGradient id="SVGID_6_" gradientUnits="userSpaceOnUse" x1="-629.733" y1="402.5319" x2="-628.733" y2="402.5319" gradientTransform="matrix(3.181620e-02 8.0164 8.0164 -3.181620e-02 -3222.8311 5080.2939)">
			<stop  offset="0" style="stop-color:#00BEFF"/>
			<stop  offset="1" style="stop-color:#007DFF"/>
		</linearGradient>
		<polygon clip-path="url(#SVGID_5_)" fill="url(#SVGID_6_)" points="-3.5,20 -3.5,26.1 -28.5,26.2 -28.5,20.1 		"/>
	</g>
	
		<text transform="matrix(1 0 0 1 -21.4913 24.6595)" fill="#FFFFFF" font-family="'NotoSansCJKkr-Bold-KSCpc-EUC-H'" font-size="5px">mp3</text>
	
		<rect x="-28.5" y="1.5" fill="none" stroke="#CCCCCC" stroke-width="0.75" stroke-linecap="round" stroke-linejoin="round" stroke-miterlimit="10" width="25" height="25"/>
</g>
<g>
	<path fill="none" stroke="#209DDF" stroke-linecap="round" stroke-linejoin="round" stroke-miterlimit="10" d="M42,10.3V6.6
		c0-0.3,0.4-0.5,0.7-0.3L45,8l2.6,1.9c0.2,0.2,0.2,0.5,0,0.7L45,12.5l-2.3,1.7c-0.3,0.2-0.7,0-0.7-0.3V10.3z"/>
	<g>
		<defs>
			<rect id="SVGID_7_" x="31.5" y="1.6" width="25" height="25"/>
		</defs>
		<clipPath id="SVGID_8_">
			<use xlink:href="#SVGID_7_"  overflow="visible"/>
		</clipPath>
		<rect x="29.1" y="17.4" clip-path="url(#SVGID_8_)" fill="#209DDF" width="29.2" height="9.8"/>
	</g>
	<path fill="#FFFFFF" d="M40.8,23.9h-0.9v-2.4c0-0.5-0.2-0.7-0.6-0.7c-0.5,0-0.8,0.3-0.8,1v2.1h-0.9v-3.7h0.9v0.6
		c0.1-0.4,0.5-0.7,1-0.7c0.5,0,0.9,0.3,1.1,0.7c0.2-0.5,0.6-0.7,1.1-0.7c0.8,0,1.2,0.5,1.2,1.4v2.3h-0.9v-2.4c0-0.5-0.2-0.7-0.6-0.7
		c-0.5,0-0.8,0.3-0.8,1V23.9z M44.5,20.8c0.1-0.4,0.5-0.7,1-0.7c0.9,0,1.4,0.6,1.4,1.9c0,1.3-0.6,1.9-1.4,1.9c-0.5,0-0.9-0.3-1-0.7
		v2.2h-0.9v-5.3h0.9V20.8z M46,22c0-0.8-0.2-1.2-0.8-1.2s-0.8,0.4-0.8,1.2c0,0.8,0.2,1.2,0.8,1.2S46,22.8,46,22z M50.8,22.8h-0.6v1
		h-0.9v-1h-2.1v-0.8l2-3.3h1v3.3h0.6V22.8z M49.4,22.1v-2l-1.2,2H49.4z"/>
	
		<rect x="31.5" y="1.4" fill="none" stroke="#CCCCCC" stroke-width="0.75" stroke-linecap="round" stroke-linejoin="round" stroke-miterlimit="10" width="25" height="25"/>
</g>
<g>
	<rect x="1.5" y="1.5" fill="#F7931E" width="25" height="25"/>
	<path fill="#FCFCFC" d="M14.2,10h5.3c0.5,0,1,0.5,1,1v7.3c0,0.5-0.5,1-1,1H8.8c-0.6,0-1-0.5-1-1V8.5c0-0.4,0.3-0.6,0.6-0.6h4.1
		c0.3,0,0.6,0.2,0.7,0.5l0.3,1.1C13.6,9.8,13.9,10,14.2,10"/>
</g>
<g>
	<rect x="1.5" y="31.5" fill="#F7931E" width="25" height="25"/>
	<path fill="#F7F7F7" d="M12.1,43.9c-0.3,0-0.5-0.2-0.5-0.5v-6.6c0-0.3,0.2-0.5,0.5-0.5c0.3,0,0.5,0.2,0.5,0.5v6.6
		C12.6,43.7,12.4,43.9,12.1,43.9"/>
	<path fill="#F7F7F7" d="M13.6,38.8h-2.9c-0.3,0-0.5-0.2-0.5-0.5c0-0.3,0.2-0.5,0.5-0.5h2.9c0.3,0,0.5,0.2,0.5,0.5
		C14.1,38.6,13.8,38.8,13.6,38.8"/>
	<path fill="#F7F7F7" d="M13.6,40.7h-2.9c-0.3,0-0.5-0.2-0.5-0.5c0-0.3,0.2-0.5,0.5-0.5h2.9c0.3,0,0.5,0.2,0.5,0.5
		C14.1,40.5,13.8,40.7,13.6,40.7"/>
	<path fill="#F7F7F7" d="M13.6,42.5h-2.9c-0.3,0-0.5-0.2-0.5-0.5c0-0.3,0.2-0.5,0.5-0.5h2.9c0.3,0,0.5,0.2,0.5,0.5
		C14.1,42.2,13.8,42.5,13.6,42.5"/>
	<path fill="#F7F7F7" d="M13.3,46.7h-2.2c-0.3,0-0.5-0.2-0.5-0.5v-1.9c0-0.2,0.1-0.3,0.2-0.4l1.1-0.8c0.2-0.1,0.4-0.1,0.6,0l1.1,0.8
		c0.1,0.1,0.2,0.2,0.2,0.4v1.9C13.8,46.5,13.6,46.7,13.3,46.7 M11.6,45.7h1.2v-1.1l-0.6-0.4l-0.6,0.4V45.7z"/>
	<path fill="#F7F7F7" d="M17.8,52H11c-1.9,0-3.5-1.6-3.5-3.5v-9.3c0-1.9,1.6-3.5,3.5-3.5h5.8l4.6,4.5v8.2C21.3,50.4,19.8,52,17.8,52
		 M11,36.7c-1.4,0-2.5,1.1-2.5,2.5v9.3c0,1.4,1.1,2.5,2.5,2.5h6.8c1.4,0,2.5-1.1,2.5-2.5v-7.8L20,40.4l0,0l-3.7-3.7H11z"/>
	<path fill="#F7F7F7" d="M20.8,41h-3.2c-0.9,0-1.6-0.7-1.6-1.6v-3.2c0-0.3,0.2-0.5,0.5-0.5c0.3,0,0.5,0.2,0.5,0.5v3.2
		c0,0.3,0.2,0.6,0.6,0.6h3.2c0.3,0,0.5,0.2,0.5,0.5C21.3,40.7,21.1,41,20.8,41"/>
</g>
<g>
	<rect x="31.5" y="31.5" fill="#F7931E" width="25" height="25"/>
	<path fill="#FFFFFF" d="M41,50.1c-0.9,0-1.8-0.4-2.4-1.1c-1.1-1.4-1-3.4,0.4-4.5l2.6-2.2c1.4-1.1,3.4-1,4.5,0.4
		c0.2,0.2,0.2,0.5-0.1,0.7c-0.2,0.2-0.5,0.2-0.7-0.1c-0.8-0.9-2.2-1-3.1-0.3l-2.6,2.2c-0.9,0.8-1,2.2-0.3,3.1c0.8,0.9,2.2,1,3.1,0.3
		l1.4-1.2c0.2-0.2,0.5-0.2,0.7,0.1c0.2,0.2,0.2,0.5-0.1,0.7l-1.4,1.2C42.5,49.8,41.7,50.1,41,50.1"/>
	<path fill="#FFFFFF" d="M45.7,46c-0.9,0-1.8-0.4-2.5-1.1c-0.2-0.2-0.2-0.5,0.1-0.7c0.2-0.2,0.5-0.2,0.7,0.1c0.8,0.9,2.2,1,3.1,0.3
		l2.4-1.9c0.9-0.8,1-2.2,0.2-3.1c-0.8-0.9-2.2-1-3.1-0.3l-1.1,1c-0.2,0.2-0.5,0.2-0.7-0.1s-0.2-0.5,0.1-0.7l1.2-1
		c1.4-1.1,3.4-1,4.5,0.4c1.1,1.4,1,3.4-0.4,4.5l-2.4,1.9C47.2,45.8,46.4,46,45.7,46"/>
</g>
</svg>
