<?xml version="1.0" encoding="utf-8"?>
<!-- Generator: Adobe Illustrator 27.0.1, SVG Export Plug-In . SVG Version: 6.00 Build 0)  -->
<svg version="1.1" id="레이어_1" xmlns="http://www.w3.org/2000/svg" xmlns:xlink="http://www.w3.org/1999/xlink" x="0px"
	 y="0px" viewBox="0 0 84 84" style="enable-background:new 0 0 84 84;" xml:space="preserve">
<style type="text/css">
	.st0{fill:#FFFFFF;}
	.st1{fill:#D4145A;}
</style>
<g>
	<path class="st0" d="M-71.6,23.8l29.5,3.5h0.1h0.1c2.9,0,5.2,2.3,5.2,5.2v19.1c0,2.9-2.3,5.2-5.2,5.2H-42h-0.1l-29.5,3.5
		c-2.8-0.1-5.1-2.4-5.1-5.2V28.9C-76.7,26.1-74.4,23.8-71.6,23.8 M-71.5,21.8c-4,0-7.2,3.2-7.2,7.2v26.1c0,4,3.2,7.2,7.2,7.2
		l29.6-3.5c4,0,7.2-3.2,7.2-7.2V32.5c0-4-3.2-7.2-7.2-7.2L-71.5,21.8z"/>
	<path class="st0" d="M-47.6,38.9L-61,37.7c-1.5-0.1-2.6-1.4-2.4-2.9c0.1-1.5,1.4-2.6,2.9-2.4l13.4,1.2c1.5,0.1,2.6,1.4,2.4,2.9
		C-44.8,38-46.2,39-47.6,38.9"/>
	<path class="st0" d="M-56.7,49V38.3c0-1.5,1.2-2.7,2.7-2.7s2.7,1.2,2.7,2.7V49c0,1.5-1.2,2.7-2.7,2.7S-56.7,50.5-56.7,49"/>
</g>
<g>
	<path class="st0" d="M-37.3,128.7c-0.2-0.2-0.4-0.4-0.7-0.5l-6.4-1.4v2.2l4.8,1.1l-6.9,30.5l-11.8-2.6h-9.9l22.3,5
		c0.1,0,0.2,0,0.2,0c0.5,0,0.9-0.3,1.1-0.9l7.3-32.7C-37.1,129.2-37.2,128.9-37.3,128.7"/>
	<path class="st0" d="M-52.4,158c0.6,0,1.1-0.5,1.1-1.1v-16.4l-0.8,0.2c-0.1,0-0.2,0-0.3,0c-0.2,0-0.5-0.1-0.7-0.2
		c-0.3-0.2-0.4-0.5-0.4-0.9v16.1h-23.2v-32.6h23.2V122c0-0.3,0.2-0.7,0.4-0.9c0.2-0.2,0.5-0.2,0.8-0.2c-0.1,0-0.1,0-0.1,0h-25.3
		c-0.6,0-1.1,0.5-1.1,1.1v34.8c0,0.6,0.5,1.1,1.1,1.1h9.6h9.9L-52.4,158L-52.4,158z"/>
	<path class="st0" d="M-53.1,121.2c-0.3,0.2-0.4,0.5-0.4,0.9v1.1v16.5c0,0.3,0.2,0.7,0.4,0.9c0.2,0.1,0.4,0.2,0.7,0.2
		c0.1,0,0.2,0,0.3,0l0.8-0.2l6.2-1.7c0.5-0.1,0.8-0.6,0.8-1V129v-2.2v-3c0-0.5-0.3-0.9-0.8-1.1l-7-1.7h-0.1
		C-52.6,121-52.9,121.1-53.1,121.2 M-46.5,124.6v12.3l-4.8,1.3v-14.8L-46.5,124.6z"/>
	<path class="st0" d="M-60.6,133.1h-8.6c-1,0-1.8-0.8-1.8-1.8s0.8-1.8,1.8-1.8h8.6c1,0,1.8,0.8,1.8,1.8S-59.6,133.1-60.6,133.1"/>
</g>
<g>
	<path class="st0" d="M64.4,154.6H19.6c-0.7,0-1.2-0.5-1.2-1.2s0.6-1.2,1.2-1.2h44.8c0.7,0,1.2,0.6,1.2,1.2S65.1,154.6,64.4,154.6"
		/>
	<rect x="50.9" y="148.4" class="st0" width="9.8" height="4.1"/>
	<path class="st0" d="M60.7,153.7h-9.8c-0.7,0-1.2-0.6-1.2-1.2v-4.1c0-0.7,0.5-1.2,1.2-1.2h9.8c0.7,0,1.2,0.6,1.2,1.2v4.1
		C61.9,153.1,61.4,153.7,60.7,153.7 M52.1,151.2h7.4v-1.6h-7.4V151.2z"/>
	<path class="st0" d="M37.1,135c0,2.3-1.9,4.2-4.2,4.2s-4.2-1.9-4.2-4.2s1.9-4.2,4.2-4.2C35.3,130.8,37.1,132.6,37.1,135"/>
	<path class="st0" d="M32.9,133.2c1,0,1.7,0.8,1.7,1.7c0,1-0.8,1.7-1.7,1.7c-1,0-1.7-0.8-1.7-1.7S32,133.2,32.9,133.2 M32.9,130.8
		c-2.3,0-4.2,1.9-4.2,4.2s1.9,4.2,4.2,4.2s4.2-1.9,4.2-4.2C37.1,132.6,35.3,130.8,32.9,130.8"/>
	<path class="st0" d="M39.1,160.7H26.7c-0.3,0-0.5-0.2-0.5-0.5V145c0-2.4,2-4.4,4.4-4.4h4.7c2.4,0,4.3,1.9,4.3,4.3V160
		C39.6,160.4,39.4,160.7,39.1,160.7"/>
	<path class="st0" d="M35.2,143.1c1,0,1.9,0.8,1.9,1.9v13.2h-8.5V145c0-1.1,0.9-1.9,1.9-1.9H35.2 M35.2,140.7h-4.7
		c-2.4,0-4.4,2-4.4,4.4v15.1c0,0.3,0.2,0.5,0.5,0.5H39c0.3,0,0.5-0.2,0.5-0.5V145C39.6,142.6,37.6,140.7,35.2,140.7"/>
	<path class="st0" d="M42.8,149.1c-0.2,0-0.5-0.1-0.7-0.2l-5.8-4.1c-0.6-0.4-0.7-1.2-0.3-1.7c0.4-0.6,1.2-0.7,1.7-0.3l5.8,4.1
		c0.6,0.4,0.7,1.2,0.3,1.7C43.6,148.9,43.2,149.1,42.8,149.1"/>
	<path class="st0" d="M42.8,149.1c-0.3,0-0.6-0.1-0.8-0.3c-0.5-0.4-0.6-1.2-0.1-1.7l4.8-5.5c0.4-0.5,1.2-0.6,1.7-0.1
		c0.5,0.4,0.6,1.2,0.1,1.7l-4.8,5.5C43.5,149,43.1,149.1,42.8,149.1"/>
	<path class="st0" d="M61.9,154.2H21.8v-28c0-1.6,1.4-2.9,3-2.9h34.1c1.7,0,3,1.3,3,2.9C61.9,126.2,61.9,154.2,61.9,154.2z
		 M24.3,151.8h35.2v-25.5c0-0.2-0.3-0.4-0.6-0.4H24.8c-0.3,0-0.6,0.2-0.6,0.4v25.5H24.3z"/>
	<path class="st0" d="M53.7,132.8H41.5c-0.7,0-1.2-0.5-1.2-1.2s0.5-1.2,1.2-1.2h12.3c0.7,0,1.2,0.6,1.2,1.2
		C55,132.3,54.4,132.8,53.7,132.8"/>
	<path class="st0" d="M53.7,137.7H41.5c-0.7,0-1.2-0.5-1.2-1.2s0.5-1.2,1.2-1.2h12.3c0.7,0,1.2,0.6,1.2,1.2
		C55,137.2,54.4,137.7,53.7,137.7"/>
</g>
<g>
	<path class="st0" d="M42.3-90c-6.9,0-12.6,5.6-12.6,12.6c0,2.5,0.7,4.9,2.1,7l8,12c0.5,0.8,1.5,1.3,2.4,1.3c1,0,1.9-0.5,2.4-1.3
		l8-12l0,0c1.4-2.1,2.1-4.5,2.1-7C54.9-84.4,49.3-90,42.3-90 M42.3-71.9c-3.1,0-5.5-2.5-5.5-5.5s2.5-5.5,5.5-5.5
		c3.1,0,5.5,2.5,5.5,5.5S45.4-71.9,42.3-71.9"/>
	<path class="st0" d="M42-53.4c-8.1,0-14.7,1.6-14.7,3.7c0,2,6.6,3.7,14.7,3.7s14.7-1.6,14.7-3.7C56.7-51.7,50.1-53.4,42-53.4"/>
</g>
<g>
	<path class="st0" d="M154.7,37.8c-0.4-0.8-0.9-1.5-1.3-2.3c-0.4-0.6-0.7-1.2-1.1-1.9c-0.2-0.3-0.3-0.5-0.5-0.8
		c-0.6-0.7-1.5-1.1-2.4-1c-0.9,0-1.8,0.4-2.3,1.1l0,0c-0.7-0.5-1.8-0.6-2.6-0.4c-0.7,0.2-1.4,0.6-1.8,1.2c-0.1,0-0.1-0.1-0.2-0.1
		c-0.5-0.2-1-0.4-1.5-0.4c-0.2,0-0.4,0-0.6,0c-0.2,0-0.4,0.1-0.6,0.1c-0.6,0.2-1.2,0.6-1.6,1c-0.4-0.7-0.8-1.4-1.2-2.2
		c-0.2-0.3-0.3-0.5-0.5-0.8c-0.5-0.8-1.3-1.5-2.2-1.7c-1.2-0.3-2.5,0-3.4,0.9s-1.2,2.2-0.9,3.3c0.1,0.6,0.5,1.1,0.8,1.7l1.4,2.3
		c0.6,1,1.3,2.1,1.9,3.1c0.6,1,1.2,2,1.8,3c-0.3-0.2-0.7-0.4-1.1-0.5c-0.3-0.1-0.7-0.1-1-0.1c-0.5,0-0.8,0.1-1.3,0.3
		c-0.7,0.3-1.2,0.8-1.6,1.4v0.1c-0.6,1.1-0.6,2.3,0,3.4c0.3,0.6,0.8,1.1,1.4,1.4c0.7,0.4,1.5,0.8,2.2,1.3c1.3,0.7,2.5,1.4,3.8,2.1
		c1.1,0.7,2.3,1.3,3.4,2c1,0.6,2,1.3,3,2c0,0.1,0,0.2,0,0.3c0,0.3,0.1,0.6,0.3,0.9v0.1c0.1,0.1,0.1,0.2,0.2,0.3l1.3,2.2
		c0.1,0.2,0.3,0.5,0.4,0.7c0.2,0.3,0.4,0.5,0.7,0.7c0.1,0.1,0.3,0.1,0.5,0.2c0.2,0.1,0.3,0.1,0.5,0.1s0.3,0,0.5-0.1
		c0.1,0,0.2-0.1,0.3-0.1s0.2-0.1,0.2-0.1c0.2-0.1,0.4-0.2,0.6-0.3l1.6-0.9c0.7-0.4,1.4-0.8,2.2-1.3s1.6-0.9,2.4-1.4
		c0.8-0.5,1.6-0.9,2.3-1.4c0.6-0.4,1.3-0.7,1.9-1.1c0.4-0.2,0.7-0.4,1.1-0.6l0.1-0.1c0.3-0.2,0.6-0.4,0.7-0.8c0.2-0.3,0.3-0.7,0.2-1
		c0-0.4-0.1-0.7-0.3-1c-0.1-0.2-0.3-0.5-0.4-0.7c-0.4-0.7-0.9-1.5-1.3-2.2c-0.1-0.1-0.1-0.2-0.2-0.3c-0.2-0.3-0.4-0.5-0.7-0.7
		c-0.1-0.1-0.2-0.1-0.4-0.2l0,0l0,0c0,0,0-0.1-0.1-0.1c-0.1-0.2-0.2-0.4-0.3-0.6c-0.3-0.8-0.6-1.5-0.9-2.3l-1.2-2.8
		c-0.3-0.8-0.7-1.7-1-2.5l-0.5-1.2l0,0l0.1,0.3C155.4,38.9,155.1,38.4,154.7,37.8 M137.6,50.5c-1-0.6-1.9-1.1-2.9-1.7
		c-0.5-0.3-0.9-0.5-1.4-0.8c0,0-0.1,0-0.1-0.1c-0.1-0.1-0.1-0.1-0.2-0.2c-0.1-0.1-0.1-0.2-0.2-0.3c0-0.1-0.1-0.2-0.1-0.3
		s0-0.2,0-0.3s0-0.2,0.1-0.3v-0.1v-0.1l0,0c0,0,0-0.1,0.1-0.1c0.1-0.1,0.1-0.1,0.2-0.2c0.1-0.1,0.2-0.1,0.3-0.2
		c0.1,0,0.2-0.1,0.3-0.1s0.2,0,0.3,0s0.2,0,0.3,0.1c0.2,0.1,0.3,0.2,0.5,0.3c0.3,0.2,0.7,0.5,1,0.7c0.8,0.5,1.6,1.1,2.4,1.6
		c0.2,0.1,0.4,0.3,0.6,0.4c0.5,0.3,1.1,0.2,1.5-0.2s0.5-1,0.2-1.5c0,0,0,0,0-0.1c-0.2-0.3-0.4-0.7-0.6-1c-0.4-0.7-0.8-1.3-1.2-2
		c-0.5-0.8-1-1.7-1.5-2.5c-0.5-0.9-1.1-1.8-1.6-2.7c-0.5-0.8-1-1.7-1.5-2.5c-0.4-0.6-0.8-1.3-1.1-1.9c-0.2-0.3-0.4-0.6-0.5-0.9
		c0-0.1-0.1-0.1-0.1-0.2c0-0.1-0.1-0.2-0.1-0.3s0-0.2,0-0.3s0-0.2,0.1-0.3c0-0.1,0.1-0.2,0.1-0.3c0.1-0.1,0.1-0.1,0.2-0.2
		c0.1-0.1,0.2-0.1,0.3-0.2c0.1,0,0.2-0.1,0.3-0.1s0.2,0,0.3,0s0.2,0,0.3,0.1c0.1,0,0.2,0.1,0.3,0.1c0.1,0.1,0.1,0.1,0.2,0.2
		c0.1,0.2,0.2,0.4,0.4,0.6c0.3,0.5,0.5,0.9,0.8,1.4c0.6,1.1,1.3,2.2,1.9,3.3c0.1,0.3,0.3,0.5,0.4,0.8c0.3,0.6,0.7,1.2,1,1.7
		c0.5,0.9,1.1,1.8,1.6,2.7c0.1,0.2,0.2,0.4,0.4,0.6c0.2,0.3,0.4,0.5,0.7,0.6s0.7,0,0.9-0.1c0.3-0.2,0.5-0.4,0.6-0.7s0-0.6-0.1-0.9
		c-0.3-0.6-0.7-1.2-1-1.7c-0.5-0.9-1.1-1.8-1.6-2.7c-0.1-0.2-0.2-0.4-0.4-0.6c0,0,0-0.1-0.1-0.1c0-0.1-0.1-0.2-0.1-0.3s0-0.2,0-0.3
		s0-0.2,0.1-0.3c0-0.1,0.1-0.2,0.1-0.3c0.1-0.1,0.1-0.1,0.2-0.2c0.1-0.1,0.2-0.1,0.3-0.1s0.2-0.1,0.3-0.1s0.2,0,0.3,0s0.2,0,0.3,0.1
		c0.1,0,0.2,0.1,0.3,0.2c0.1,0.1,0.2,0.1,0.2,0.2c0.1,0.2,0.2,0.4,0.4,0.6c0.1,0.2,0.3,0.4,0.4,0.7c0.3,0.4,0.5,0.9,0.8,1.3
		c0.4,0.7,0.8,1.4,1.2,2.1c0.1,0.2,0.2,0.3,0.3,0.5c0.2,0.3,0.4,0.5,0.7,0.6s0.7,0,0.9-0.1c0.3-0.2,0.5-0.4,0.6-0.7s0-0.6-0.1-0.9
		l-0.8-1.3l-1.2-2.1c-0.1-0.2-0.2-0.3-0.3-0.5c0,0,0-0.1-0.1-0.1c0-0.1,0-0.2-0.1-0.2c0-0.1,0-0.2,0-0.2c0-0.1,0-0.1,0.1-0.2
		c0-0.1,0.1-0.1,0.1-0.2c0.1-0.1,0.1-0.1,0.2-0.2c0.1,0,0.1-0.1,0.2-0.1c0.1,0,0.2,0,0.2-0.1c0.1,0,0.2,0,0.2,0c0.1,0,0.1,0,0.2,0.1
		c0.1,0,0.1,0.1,0.2,0.1c0.1,0.1,0.1,0.1,0.2,0.2c0.1,0.2,0.2,0.4,0.4,0.6c0.1,0.2,0.3,0.5,0.4,0.7c0.5,0.8,0.9,1.6,1.4,2.3
		c0.1,0.1,0.1,0.2,0.2,0.3c0.2,0.3,0.4,0.5,0.7,0.6s0.7,0,0.9-0.1c0.3-0.2,0.5-0.4,0.6-0.7s0-0.6-0.1-0.9c-0.5-0.8-0.9-1.6-1.4-2.3
		c-0.1-0.1-0.1-0.2-0.2-0.3v-0.1c0-0.1,0-0.1,0-0.2c0-0.1,0-0.1,0-0.2c0-0.1,0-0.1,0-0.2c0-0.1,0.1-0.1,0.1-0.2l0.1-0.1
		c0.1,0,0.1-0.1,0.2-0.1c0.1,0,0.1,0,0.2,0c0.1,0,0.1,0,0.2,0c0.1,0,0.1,0,0.2,0c0.1,0,0.1,0.1,0.2,0.1c0.1,0,0.1,0.1,0.2,0.2
		c0.1,0.2,0.2,0.4,0.3,0.6c0.3,0.4,0.5,0.9,0.8,1.3c0.6,1,1.1,2,1.7,3c0.2,0.3,0.4,0.6,0.5,1c0.1,0.3,0.3,0.7,0.4,1
		c0.3,0.8,0.6,1.5,0.9,2.3c0.4,0.9,0.8,1.9,1.2,2.8c0.3,0.8,0.7,1.6,1,2.4c0.1,0.2,0.2,0.4,0.2,0.6c-0.1,0-0.1,0.1-0.2,0.1
		c-0.6,0.3-1.2,0.7-1.7,1c-0.8,0.4-1.5,0.9-2.3,1.3c-0.8,0.5-1.6,0.9-2.4,1.4c-0.8,0.4-1.5,0.9-2.3,1.3c-0.6,0.3-1.2,0.7-1.7,1
		c-0.1,0-0.2,0.1-0.3,0.1c-0.9-0.6-1.9-1.3-2.8-1.9c-0.8-0.5-1.7-1-2.5-1.5C139.8,51.7,138.7,51.1,137.6,50.5 M158,55.1
		c-0.5,0.3-1.1,0.6-1.6,0.9c-0.6,0.3-1.2,0.7-1.8,1s-1.2,0.7-1.8,1s-1.1,0.6-1.7,1c-0.5,0.3-0.9,0.5-1.4,0.8c-0.3,0.2-0.7,0.4-1,0.6
		h-0.1l-0.4-0.7c-0.4-0.6-0.7-1.2-1.1-1.8c0.3-0.2,0.5-0.3,0.8-0.5c0.4-0.3,0.9-0.5,1.3-0.8c0.5-0.3,1.1-0.6,1.6-0.9
		c0.6-0.3,1.2-0.7,1.8-1l1.8-1c0.6-0.3,1.1-0.6,1.7-1c0.5-0.3,0.9-0.5,1.4-0.8c0.3-0.2,0.7-0.4,1-0.6h0.1L159,52
		c0.4,0.6,0.7,1.2,1.1,1.8l-0.8,0.5C158.9,54.6,158.4,54.9,158,55.1"/>
	<path class="st0" d="M129.7,27c0.3-0.2,0.5-0.4,0.6-0.7c0.1-0.3,0-0.6-0.1-0.9c-0.5-0.8-0.9-1.6-1.4-2.4c-0.1-0.1-0.1-0.2-0.2-0.3
		c-0.2-0.3-0.4-0.5-0.7-0.6s-0.7,0-0.9,0.1c-0.3,0.2-0.5,0.4-0.6,0.7c-0.1,0.3,0,0.6,0.1,0.9c0.5,0.8,0.9,1.6,1.4,2.4
		c0.1,0.1,0.1,0.2,0.2,0.3c0.2,0.3,0.4,0.5,0.7,0.6S129.5,27.1,129.7,27"/>
	<path class="st0" d="M124.8,31.7c0.1,0,0.3,0.1,0.4,0.1c0.3,0.1,0.6,0,0.9-0.1s0.5-0.4,0.6-0.7c0.1-0.3,0.1-0.6-0.1-0.9
		s-0.4-0.5-0.7-0.6l-2.6-0.7c-0.1,0-0.3-0.1-0.4-0.1c-0.3-0.1-0.6,0-0.9,0.1s-0.5,0.4-0.6,0.7c-0.1,0.3-0.1,0.6,0.1,0.9
		s0.4,0.5,0.7,0.6C123.1,31.2,123.9,31.5,124.8,31.7"/>
	<path class="st0" d="M126.9,37.6c0.3-0.2,0.5-0.4,0.6-0.7s0-0.7-0.1-0.9c-0.2-0.3-0.4-0.5-0.7-0.6c-0.3-0.1-0.6,0-0.9,0.1
		c-0.8,0.5-1.6,0.9-2.4,1.4c-0.1,0.1-0.2,0.1-0.3,0.2c-0.3,0.2-0.5,0.4-0.6,0.7s0,0.7,0.1,0.9c0.2,0.3,0.4,0.5,0.7,0.6
		c0.3,0.1,0.6,0,0.9-0.1l2.4-1.4C126.7,37.7,126.8,37.6,126.9,37.6"/>
	<path class="st0" d="M135.6,26.2c0.3-0.2,0.5-0.4,0.6-0.7c0.2-0.9,0.5-1.8,0.7-2.6c0-0.1,0.1-0.3,0.1-0.4c0.1-0.3,0-0.6-0.1-0.9
		s-0.4-0.5-0.7-0.6s-0.6-0.1-0.9,0.1c-0.3,0.2-0.5,0.4-0.6,0.7l-0.7,2.6c0,0.1-0.1,0.3-0.1,0.4c-0.1,0.3,0,0.6,0.1,0.9
		s0.4,0.5,0.7,0.6C135,26.4,135.4,26.4,135.6,26.2"/>
	<path class="st0" d="M139.2,27.7c-0.3,0.2-0.5,0.4-0.6,0.7c-0.1,0.3,0,0.7,0.1,0.9c0.2,0.3,0.4,0.5,0.7,0.6s0.6,0,0.9-0.1
		c0.8-0.5,1.6-0.9,2.4-1.4c0.1-0.1,0.2-0.1,0.3-0.2c0.3-0.2,0.5-0.4,0.6-0.7c0.1-0.3,0-0.7-0.1-0.9c-0.2-0.3-0.4-0.5-0.7-0.6
		s-0.6,0-0.9,0.1c-0.8,0.5-1.6,0.9-2.4,1.4C139.4,27.6,139.3,27.7,139.2,27.7"/>
</g>
<path class="st1" d="M68.6,45c-0.4,0-0.8-0.1-1.2-0.4L42,25.5L16.6,44.6c-0.9,0.6-2.1,0.5-2.7-0.4c-0.6-0.9-0.5-2.1,0.4-2.7
	l26.6-20.1c0.7-0.5,1.7-0.5,2.3,0l26.6,20.1c0.9,0.6,1,1.9,0.4,2.7C69.8,44.8,69.2,45,68.6,45"/>
<path class="st1" d="M37.2,58.8h-6.5c-3,0-5.5-2.5-5.5-5.5v-13c0-0.8,0.7-1.5,1.5-1.5s1.5,0.7,1.5,1.5v13.1c0,1.4,1.1,2.5,2.5,2.5
	h6.5c0.8,0,1.5,0.7,1.5,1.5C38.7,58.1,38,58.8,37.2,58.8"/>
<path class="st1" d="M52.9,58.8h-6.2c-0.8,0-1.5-0.7-1.5-1.5s0.7-1.5,1.5-1.5h6.2c1.4,0,2.5-1.1,2.5-2.5v-13c0-0.8,0.7-1.5,1.5-1.5
	s1.5,0.7,1.5,1.5v13.1C58.4,56.3,55.9,58.8,52.9,58.8"/>
<path class="st1" d="M46.1,58.8c-0.8,0-1.5-0.7-1.5-1.5V47.2c0-1.6-1.3-2.8-2.8-2.8c-1.6,0-2.8,1.3-2.8,2.8v10.1
	c0,0.8-0.7,1.5-1.5,1.5S36,58.1,36,57.3V47.2c0-3.2,2.6-5.8,5.8-5.8s5.8,2.6,5.8,5.8v10.1C47.6,58.1,47,58.8,46.1,58.8"/>
</svg>
