<?xml version="1.0" encoding="utf-8"?>
<!-- Generator: Adobe Illustrator 23.1.0, SVG Export Plug-In . SVG Version: 6.00 Build 0)  -->
<svg version="1.1" id="레이어_1" xmlns="http://www.w3.org/2000/svg" xmlns:xlink="http://www.w3.org/1999/xlink" x="0px"
	 y="0px" viewBox="0 0 84 84" style="enable-background:new 0 0 84 84;" xml:space="preserve">
<style type="text/css">
	.st0{fill:#FFFFFF;}
</style>
<g>
	<path class="st0" d="M-71.6,23.8l29.5,3.5l0.1,0h0.1c2.9,0,5.2,2.3,5.2,5.2v19.1c0,2.9-2.3,5.2-5.2,5.2H-42l-0.1,0l-29.5,3.5
		c-2.8-0.1-5.1-2.4-5.1-5.2V28.9C-76.7,26.1-74.4,23.8-71.6,23.8 M-71.5,21.8c-4,0-7.2,3.2-7.2,7.2v26.1c0,4,3.2,7.2,7.2,7.2
		l29.6-3.5c4,0,7.2-3.2,7.2-7.2V32.5c0-4-3.2-7.2-7.2-7.2L-71.5,21.8z"/>
	<path class="st0" d="M-47.6,38.9L-61,37.7c-1.5-0.1-2.6-1.4-2.4-2.9c0.1-1.5,1.4-2.6,2.9-2.4l13.4,1.2c1.5,0.1,2.6,1.4,2.4,2.9
		C-44.8,38-46.2,39-47.6,38.9"/>
	<path class="st0" d="M-56.7,49V38.3c0-1.5,1.2-2.7,2.7-2.7c1.5,0,2.7,1.2,2.7,2.7V49c0,1.5-1.2,2.7-2.7,2.7
		C-55.5,51.7-56.7,50.5-56.7,49"/>
</g>
<g>
	<path class="st0" d="M62.7,28.7c-0.2-0.2-0.4-0.4-0.7-0.5l-6.4-1.4V29l4.8,1.1l-6.9,30.5L41.8,58h-9.9l22.3,5c0.1,0,0.2,0,0.2,0
		c0.5,0,0.9-0.3,1.1-0.8l7.3-32.7C62.9,29.2,62.8,28.9,62.7,28.7"/>
	<path class="st0" d="M47.6,58c0.6,0,1.1-0.5,1.1-1.1V40.5l-0.8,0.2c-0.1,0-0.2,0-0.3,0c-0.2,0-0.5-0.1-0.7-0.2
		c-0.3-0.2-0.4-0.5-0.4-0.9v16.1H23.3V23.2h23.2v-1.1c0-0.3,0.2-0.7,0.4-0.9c0.2-0.2,0.5-0.2,0.8-0.2c-0.1,0-0.1,0-0.1,0H22.3
		c-0.6,0-1.1,0.5-1.1,1.1v34.8c0,0.6,0.5,1.1,1.1,1.1h9.6h9.9H47.6z"/>
	<path class="st0" d="M46.9,21.2c-0.3,0.2-0.4,0.5-0.4,0.9v1.1v16.5c0,0.3,0.2,0.7,0.4,0.9c0.2,0.1,0.4,0.2,0.7,0.2
		c0.1,0,0.2,0,0.3,0l0.8-0.2l6.2-1.7c0.5-0.1,0.8-0.6,0.8-1V29v-2.2v-3c0-0.5-0.3-0.9-0.8-1.1l-7-1.7c0,0-0.1,0-0.1,0
		C47.4,21,47.1,21.1,46.9,21.2 M53.5,24.6v12.3l-4.8,1.3V23.5L53.5,24.6z"/>
	<path class="st0" d="M39.4,33.1h-8.6c-1,0-1.8-0.8-1.8-1.8c0-1,0.8-1.8,1.8-1.8h8.6c1,0,1.8,0.8,1.8,1.8
		C41.2,32.3,40.4,33.1,39.4,33.1"/>
</g>
<g>
	<path class="st0" d="M64.4,154.6H19.6c-0.7,0-1.2-0.5-1.2-1.2c0-0.7,0.6-1.2,1.2-1.2h44.8c0.7,0,1.2,0.6,1.2,1.2
		C65.6,154,65.1,154.6,64.4,154.6"/>
	<rect x="50.9" y="148.4" class="st0" width="9.8" height="4.1"/>
	<path class="st0" d="M60.7,153.7h-9.8c-0.7,0-1.2-0.6-1.2-1.2v-4.1c0-0.7,0.5-1.2,1.2-1.2h9.8c0.7,0,1.2,0.6,1.2,1.2v4.1
		C61.9,153.1,61.4,153.7,60.7,153.7 M52.1,151.2h7.4v-1.6h-7.4V151.2z"/>
	<path class="st0" d="M37.1,135c0,2.3-1.9,4.2-4.2,4.2c-2.3,0-4.2-1.9-4.2-4.2s1.9-4.2,4.2-4.2C35.3,130.8,37.1,132.6,37.1,135"/>
	<path class="st0" d="M32.9,133.2c1,0,1.7,0.8,1.7,1.7c0,1-0.8,1.7-1.7,1.7c-1,0-1.7-0.8-1.7-1.7C31.2,134,32,133.2,32.9,133.2
		 M32.9,130.8c-2.3,0-4.2,1.9-4.2,4.2c0,2.3,1.9,4.2,4.2,4.2c2.3,0,4.2-1.9,4.2-4.2C37.1,132.6,35.3,130.8,32.9,130.8"/>
	<path class="st0" d="M39.1,160.7H26.7c-0.3,0-0.5-0.2-0.5-0.5V145c0-2.4,2-4.4,4.4-4.4h4.7c2.4,0,4.3,1.9,4.3,4.3v15.1
		C39.6,160.4,39.4,160.7,39.1,160.7"/>
	<path class="st0" d="M35.2,143.1c1,0,1.9,0.8,1.9,1.9v13.2h-8.5V145c0-1.1,0.9-1.9,1.9-1.9H35.2 M35.2,140.7h-4.7
		c-2.4,0-4.4,2-4.4,4.4v15.1c0,0.3,0.2,0.5,0.5,0.5h12.4c0.3,0,0.5-0.2,0.5-0.5V145C39.6,142.6,37.6,140.7,35.2,140.7"/>
	<path class="st0" d="M42.8,149.1c-0.2,0-0.5-0.1-0.7-0.2l-5.8-4.1c-0.6-0.4-0.7-1.2-0.3-1.7c0.4-0.6,1.2-0.7,1.7-0.3l5.8,4.1
		c0.6,0.4,0.7,1.2,0.3,1.7C43.6,148.9,43.2,149.1,42.8,149.1"/>
	<path class="st0" d="M42.8,149.1c-0.3,0-0.6-0.1-0.8-0.3c-0.5-0.4-0.6-1.2-0.1-1.7l4.8-5.5c0.4-0.5,1.2-0.6,1.7-0.1
		c0.5,0.4,0.6,1.2,0.1,1.7l-4.8,5.5C43.5,149,43.1,149.1,42.8,149.1"/>
	<path class="st0" d="M61.9,154.2H21.8v-28c0-1.6,1.4-2.9,3-2.9h34.1c1.7,0,3,1.3,3,2.9V154.2z M24.3,151.8h35.2v-25.5
		c0-0.2-0.3-0.4-0.6-0.4H24.8c-0.3,0-0.6,0.2-0.6,0.4V151.8z"/>
	<path class="st0" d="M53.7,132.8H41.5c-0.7,0-1.2-0.5-1.2-1.2c0-0.7,0.5-1.2,1.2-1.2h12.3c0.7,0,1.2,0.6,1.2,1.2
		C55,132.3,54.4,132.8,53.7,132.8"/>
	<path class="st0" d="M53.7,137.7H41.5c-0.7,0-1.2-0.5-1.2-1.2c0-0.7,0.5-1.2,1.2-1.2h12.3c0.7,0,1.2,0.6,1.2,1.2
		C55,137.2,54.4,137.7,53.7,137.7"/>
</g>
<g>
	<path class="st0" d="M42.3-90c-6.9,0-12.6,5.6-12.6,12.6c0,2.5,0.7,4.9,2.1,7l8,12c0.5,0.8,1.5,1.3,2.4,1.3c1,0,1.9-0.5,2.4-1.3
		l8-12l0,0c1.4-2.1,2.1-4.5,2.1-7C54.9-84.4,49.3-90,42.3-90 M42.3-71.9c-3.1,0-5.5-2.5-5.5-5.5s2.5-5.5,5.5-5.5
		c3.1,0,5.5,2.5,5.5,5.5S45.4-71.9,42.3-71.9"/>
	<path class="st0" d="M42-53.4c-8.1,0-14.7,1.6-14.7,3.7c0,2,6.6,3.7,14.7,3.7c8.1,0,14.7-1.6,14.7-3.7C56.7-51.7,50.1-53.4,42-53.4
		"/>
</g>
<g>
	<path class="st0" d="M154.7,37.8c-0.4-0.8-0.9-1.5-1.3-2.3c-0.4-0.6-0.7-1.2-1.1-1.9c-0.2-0.3-0.3-0.5-0.5-0.8
		c-0.6-0.7-1.5-1.1-2.4-1c-0.9,0-1.8,0.4-2.3,1.1c0,0,0,0,0,0c-0.7-0.5-1.8-0.6-2.6-0.4c-0.7,0.2-1.4,0.6-1.8,1.2
		c-0.1,0-0.1-0.1-0.2-0.1c-0.5-0.2-1-0.4-1.5-0.4c-0.2,0-0.4,0-0.6,0c-0.2,0-0.4,0.1-0.6,0.1c-0.6,0.2-1.2,0.6-1.6,1
		c-0.4-0.7-0.8-1.4-1.2-2.2c-0.2-0.3-0.3-0.5-0.5-0.8c-0.5-0.8-1.3-1.5-2.2-1.7c-1.2-0.3-2.5,0-3.4,0.9c-0.9,0.9-1.2,2.2-0.9,3.3
		c0.1,0.6,0.5,1.1,0.8,1.7l1.4,2.3c0.6,1,1.3,2.1,1.9,3.1c0.6,1,1.2,2,1.8,3c-0.3-0.2-0.7-0.4-1.1-0.5c-0.3-0.1-0.7-0.1-1-0.1
		c-0.5,0-0.8,0.1-1.3,0.3c-0.7,0.3-1.2,0.8-1.6,1.4c0,0,0,0.1,0,0.1c-0.6,1.1-0.6,2.3,0,3.4c0.3,0.6,0.8,1.1,1.4,1.4
		c0.7,0.4,1.5,0.8,2.2,1.3c1.3,0.7,2.5,1.4,3.8,2.1c1.1,0.7,2.3,1.3,3.4,2c1,0.6,2,1.3,3,2c0,0.1,0,0.2,0,0.3c0,0.3,0.1,0.6,0.3,0.9
		l0,0.1c0.1,0.1,0.1,0.2,0.2,0.3l1.3,2.2c0.1,0.2,0.3,0.5,0.4,0.7c0.2,0.3,0.4,0.5,0.7,0.7c0.1,0.1,0.3,0.1,0.5,0.2
		c0.2,0.1,0.3,0.1,0.5,0.1c0.2,0,0.3,0,0.5-0.1c0.1,0,0.2-0.1,0.3-0.1c0.1,0,0.2-0.1,0.2-0.1c0.2-0.1,0.4-0.2,0.6-0.3l1.6-0.9
		c0.7-0.4,1.4-0.8,2.2-1.3c0.8-0.5,1.6-0.9,2.4-1.4c0.8-0.5,1.6-0.9,2.3-1.4c0.6-0.4,1.3-0.7,1.9-1.1c0.4-0.2,0.7-0.4,1.1-0.6
		c0,0,0.1-0.1,0.1-0.1c0.3-0.2,0.6-0.4,0.7-0.8c0.2-0.3,0.3-0.7,0.2-1c0-0.4-0.1-0.7-0.3-1c-0.1-0.2-0.3-0.5-0.4-0.7
		c-0.4-0.7-0.9-1.5-1.3-2.2c-0.1-0.1-0.1-0.2-0.2-0.3c-0.2-0.3-0.4-0.5-0.7-0.7c-0.1-0.1-0.2-0.1-0.4-0.2c0,0,0,0,0,0c0,0,0,0,0,0
		c0,0,0-0.1-0.1-0.1c-0.1-0.2-0.2-0.4-0.3-0.6c-0.3-0.8-0.6-1.5-0.9-2.3l-1.2-2.8c-0.3-0.8-0.7-1.7-1-2.5l-0.5-1.2c0,0,0,0,0,0
		l0.1,0.3C155.4,38.9,155.1,38.4,154.7,37.8 M137.6,50.5c-1-0.6-1.9-1.1-2.9-1.7c-0.5-0.3-0.9-0.5-1.4-0.8c0,0-0.1,0-0.1-0.1
		c-0.1-0.1-0.1-0.1-0.2-0.2c-0.1-0.1-0.1-0.2-0.2-0.3c0-0.1-0.1-0.2-0.1-0.3c0-0.1,0-0.2,0-0.3c0-0.1,0-0.2,0.1-0.3c0,0,0-0.1,0-0.1
		l0-0.1v0c0,0,0-0.1,0.1-0.1c0.1-0.1,0.1-0.1,0.2-0.2c0.1-0.1,0.2-0.1,0.3-0.2c0.1,0,0.2-0.1,0.3-0.1c0.1,0,0.2,0,0.3,0
		c0.1,0,0.2,0,0.3,0.1c0.2,0.1,0.3,0.2,0.5,0.3c0.3,0.2,0.7,0.5,1,0.7c0.8,0.5,1.6,1.1,2.4,1.6c0.2,0.1,0.4,0.3,0.6,0.4
		c0.5,0.3,1.1,0.2,1.5-0.2c0.4-0.4,0.5-1,0.2-1.5c0,0,0,0,0-0.1c-0.2-0.3-0.4-0.7-0.6-1c-0.4-0.7-0.8-1.3-1.2-2
		c-0.5-0.8-1-1.7-1.5-2.5c-0.5-0.9-1.1-1.8-1.6-2.7c-0.5-0.8-1-1.7-1.5-2.5c-0.4-0.6-0.8-1.3-1.1-1.9c-0.2-0.3-0.4-0.6-0.5-0.9
		c0-0.1-0.1-0.1-0.1-0.2c0-0.1-0.1-0.2-0.1-0.3c0-0.1,0-0.2,0-0.3c0-0.1,0-0.2,0.1-0.3c0-0.1,0.1-0.2,0.1-0.3
		c0.1-0.1,0.1-0.1,0.2-0.2c0.1-0.1,0.2-0.1,0.3-0.2c0.1,0,0.2-0.1,0.3-0.1c0.1,0,0.2,0,0.3,0c0.1,0,0.2,0,0.3,0.1
		c0.1,0,0.2,0.1,0.3,0.1c0.1,0.1,0.1,0.1,0.2,0.2c0.1,0.2,0.2,0.4,0.4,0.6c0.3,0.5,0.5,0.9,0.8,1.4c0.6,1.1,1.3,2.2,1.9,3.3
		c0.1,0.3,0.3,0.5,0.4,0.8c0.3,0.6,0.7,1.2,1,1.7c0.5,0.9,1.1,1.8,1.6,2.7c0.1,0.2,0.2,0.4,0.4,0.6c0.2,0.3,0.4,0.5,0.7,0.6
		c0.3,0.1,0.7,0,0.9-0.1c0.3-0.2,0.5-0.4,0.6-0.7c0.1-0.3,0-0.6-0.1-0.9c-0.3-0.6-0.7-1.2-1-1.7c-0.5-0.9-1.1-1.8-1.6-2.7
		c-0.1-0.2-0.2-0.4-0.4-0.6c0,0,0-0.1-0.1-0.1c0-0.1-0.1-0.2-0.1-0.3c0-0.1,0-0.2,0-0.3c0-0.1,0-0.2,0.1-0.3c0-0.1,0.1-0.2,0.1-0.3
		c0.1-0.1,0.1-0.1,0.2-0.2c0.1-0.1,0.2-0.1,0.3-0.1c0.1,0,0.2-0.1,0.3-0.1c0.1,0,0.2,0,0.3,0c0.1,0,0.2,0,0.3,0.1
		c0.1,0,0.2,0.1,0.3,0.2c0.1,0.1,0.2,0.1,0.2,0.2c0.1,0.2,0.2,0.4,0.4,0.6c0.1,0.2,0.3,0.4,0.4,0.7c0.3,0.4,0.5,0.9,0.8,1.3
		c0.4,0.7,0.8,1.4,1.2,2.1c0.1,0.2,0.2,0.3,0.3,0.5c0.2,0.3,0.4,0.5,0.7,0.6c0.3,0.1,0.7,0,0.9-0.1c0.3-0.2,0.5-0.4,0.6-0.7
		c0.1-0.3,0-0.6-0.1-0.9l-0.8-1.3l-1.2-2.1c-0.1-0.2-0.2-0.3-0.3-0.5c0,0,0-0.1-0.1-0.1c0-0.1,0-0.2-0.1-0.2c0-0.1,0-0.2,0-0.2
		c0-0.1,0-0.1,0.1-0.2c0-0.1,0.1-0.1,0.1-0.2c0.1-0.1,0.1-0.1,0.2-0.2c0.1,0,0.1-0.1,0.2-0.1c0.1,0,0.2,0,0.2-0.1c0.1,0,0.2,0,0.2,0
		c0.1,0,0.1,0,0.2,0.1c0.1,0,0.1,0.1,0.2,0.1c0.1,0.1,0.1,0.1,0.2,0.2c0.1,0.2,0.2,0.4,0.4,0.6c0.1,0.2,0.3,0.5,0.4,0.7
		c0.5,0.8,0.9,1.6,1.4,2.3c0.1,0.1,0.1,0.2,0.2,0.3c0.2,0.3,0.4,0.5,0.7,0.6c0.3,0.1,0.7,0,0.9-0.1c0.3-0.2,0.5-0.4,0.6-0.7
		c0.1-0.3,0-0.6-0.1-0.9c-0.5-0.8-0.9-1.6-1.4-2.3c-0.1-0.1-0.1-0.2-0.2-0.3c0,0,0-0.1,0-0.1c0-0.1,0-0.1,0-0.2c0-0.1,0-0.1,0-0.2
		c0-0.1,0-0.1,0-0.2c0-0.1,0.1-0.1,0.1-0.2c0,0,0.1-0.1,0.1-0.1c0.1,0,0.1-0.1,0.2-0.1c0.1,0,0.1,0,0.2,0c0.1,0,0.1,0,0.2,0
		c0.1,0,0.1,0,0.2,0c0.1,0,0.1,0.1,0.2,0.1c0.1,0,0.1,0.1,0.2,0.2c0.1,0.2,0.2,0.4,0.3,0.6c0.3,0.4,0.5,0.9,0.8,1.3
		c0.6,1,1.1,2,1.7,3c0.2,0.3,0.4,0.6,0.5,1c0.1,0.3,0.3,0.7,0.4,1c0.3,0.8,0.6,1.5,0.9,2.3c0.4,0.9,0.8,1.9,1.2,2.8
		c0.3,0.8,0.7,1.6,1,2.4c0.1,0.2,0.2,0.4,0.2,0.6c-0.1,0-0.1,0.1-0.2,0.1c-0.6,0.3-1.2,0.7-1.7,1c-0.8,0.4-1.5,0.9-2.3,1.3
		c-0.8,0.5-1.6,0.9-2.4,1.4c-0.8,0.4-1.5,0.9-2.3,1.3c-0.6,0.3-1.2,0.7-1.7,1c-0.1,0-0.2,0.1-0.3,0.1c-0.9-0.6-1.9-1.3-2.8-1.9
		c-0.8-0.5-1.7-1-2.5-1.5C139.8,51.7,138.7,51.1,137.6,50.5 M158,55.1c-0.5,0.3-1.1,0.6-1.6,0.9c-0.6,0.3-1.2,0.7-1.8,1
		c-0.6,0.3-1.2,0.7-1.8,1c-0.6,0.3-1.1,0.6-1.7,1c-0.5,0.3-0.9,0.5-1.4,0.8c-0.3,0.2-0.7,0.4-1,0.6c0,0-0.1,0-0.1,0l-0.4-0.7
		c-0.4-0.6-0.7-1.2-1.1-1.8c0.3-0.2,0.5-0.3,0.8-0.5c0.4-0.3,0.9-0.5,1.3-0.8c0.5-0.3,1.1-0.6,1.6-0.9c0.6-0.3,1.2-0.7,1.8-1l1.8-1
		c0.6-0.3,1.1-0.6,1.7-1c0.5-0.3,0.9-0.5,1.4-0.8c0.3-0.2,0.7-0.4,1-0.6c0,0,0.1,0,0.1,0l0.4,0.7c0.4,0.6,0.7,1.2,1.1,1.8l-0.8,0.5
		C158.9,54.6,158.4,54.9,158,55.1"/>
	<path class="st0" d="M129.7,27c0.3-0.2,0.5-0.4,0.6-0.7c0.1-0.3,0-0.6-0.1-0.9c-0.5-0.8-0.9-1.6-1.4-2.4c-0.1-0.1-0.1-0.2-0.2-0.3
		c-0.2-0.3-0.4-0.5-0.7-0.6c-0.3-0.1-0.7,0-0.9,0.1c-0.3,0.2-0.5,0.4-0.6,0.7c-0.1,0.3,0,0.6,0.1,0.9c0.5,0.8,0.9,1.6,1.4,2.4
		c0.1,0.1,0.1,0.2,0.2,0.3c0.2,0.3,0.4,0.5,0.7,0.6C129.1,27.2,129.5,27.1,129.7,27"/>
	<path class="st0" d="M124.8,31.7c0.1,0,0.3,0.1,0.4,0.1c0.3,0.1,0.6,0,0.9-0.1c0.3-0.1,0.5-0.4,0.6-0.7c0.1-0.3,0.1-0.6-0.1-0.9
		c-0.2-0.3-0.4-0.5-0.7-0.6l-2.6-0.7c-0.1,0-0.3-0.1-0.4-0.1c-0.3-0.1-0.6,0-0.9,0.1c-0.3,0.1-0.5,0.4-0.6,0.7
		c-0.1,0.3-0.1,0.6,0.1,0.9c0.2,0.3,0.4,0.5,0.7,0.6C123.1,31.2,123.9,31.5,124.8,31.7"/>
	<path class="st0" d="M126.9,37.6c0.3-0.2,0.5-0.4,0.6-0.7c0.1-0.3,0-0.7-0.1-0.9c-0.2-0.3-0.4-0.5-0.7-0.6c-0.3-0.1-0.6,0-0.9,0.1
		c-0.8,0.5-1.6,0.9-2.4,1.4c-0.1,0.1-0.2,0.1-0.3,0.2c-0.3,0.2-0.5,0.4-0.6,0.7c-0.1,0.3,0,0.7,0.1,0.9c0.2,0.3,0.4,0.5,0.7,0.6
		c0.3,0.1,0.6,0,0.9-0.1l2.4-1.4C126.7,37.7,126.8,37.6,126.9,37.6"/>
	<path class="st0" d="M135.6,26.2c0.3-0.2,0.5-0.4,0.6-0.7c0.2-0.9,0.5-1.8,0.7-2.6c0-0.1,0.1-0.3,0.1-0.4c0.1-0.3,0-0.6-0.1-0.9
		c-0.1-0.3-0.4-0.5-0.7-0.6c-0.3-0.1-0.6-0.1-0.9,0.1c-0.3,0.2-0.5,0.4-0.6,0.7l-0.7,2.6c0,0.1-0.1,0.3-0.1,0.4
		c-0.1,0.3,0,0.6,0.1,0.9c0.1,0.3,0.4,0.5,0.7,0.6C135,26.4,135.4,26.4,135.6,26.2"/>
	<path class="st0" d="M139.2,27.7c-0.3,0.2-0.5,0.4-0.6,0.7c-0.1,0.3,0,0.7,0.1,0.9c0.2,0.3,0.4,0.5,0.7,0.6c0.3,0.1,0.6,0,0.9-0.1
		c0.8-0.5,1.6-0.9,2.4-1.4c0.1-0.1,0.2-0.1,0.3-0.2c0.3-0.2,0.5-0.4,0.6-0.7c0.1-0.3,0-0.7-0.1-0.9c-0.2-0.3-0.4-0.5-0.7-0.6
		c-0.3-0.1-0.6,0-0.9,0.1c-0.8,0.5-1.6,0.9-2.4,1.4C139.4,27.6,139.3,27.7,139.2,27.7"/>
</g>
</svg>
