<svg xmlns="http://www.w3.org/2000/svg" xmlns:xlink="http://www.w3.org/1999/xlink" version="1.1" id="Layer_1" x="0px" y="0px" enable-background="new 0 0 141.732 141.732" xml:space="preserve" viewBox="0 0 141.73 141.73">
<g>
	<defs>
		<rect id="SVGID_1_" width="141.732" height="141.732"/>
	</defs>
	<clipPath id="SVGID_2_">
		<use xlink:href="#SVGID_1_" overflow="visible"/>
	</clipPath>
	<g clip-path="url(#SVGID_2_)">
		<defs>
			<path id="SVGID_3_" d="M58.24,80.257c-2.027,0-3.676,1.65-3.676,3.678v26.661c0,2.027,1.649,3.679,3.676,3.679h26.662     c2.029,0,3.678-1.651,3.678-3.679V83.935c0-2.027-1.648-3.678-3.678-3.678H58.24z"/>
		</defs>
		<clipPath id="SVGID_4_">
			<use xlink:href="#SVGID_3_" overflow="visible"/>
		</clipPath>
		
			<linearGradient id="SVGID_5_" gradientUnits="userSpaceOnUse" x1="0" y1="141.7319" x2="1" y2="141.7319" gradientTransform="matrix(-1.500000e-006 -34.0176 -34.0176 1.500000e-006 4892.958 114.2623)">
			<stop offset="0" style="stop-color:#000000"/>
			<stop offset="0.1205" style="stop-color:#535151"/>
			<stop offset="0.3277" style="stop-color:#969696"/>
			<stop offset="0.4768" style="stop-color:#BCBCBD"/>
			<stop offset="0.5519" style="stop-color:#C9CACA"/>
			<stop offset="0.6018" style="stop-color:#C1C2C2"/>
			<stop offset="0.6869" style="stop-color:#ABACAD"/>
			<stop offset="0.7966" style="stop-color:#858585"/>
			<stop offset="0.9255" style="stop-color:#4C4948"/>
			<stop offset="0.9992" style="stop-color:#000000"/>
			<stop offset="1" style="stop-color:#000000"/>
		</linearGradient>
		<rect x="54.564" y="80.257" clip-path="url(#SVGID_4_)" fill="url(#SVGID_5_)" width="34.016" height="34.018"/>
	</g>
	<g clip-path="url(#SVGID_2_)">
		<defs>
			<path id="SVGID_6_" d="M58.6,81.109c-1.756,0-3.186,1.43-3.186,3.187v25.942c0,1.755,1.43,3.186,3.186,3.186h25.945     c1.756,0,3.186-1.431,3.186-3.186V84.295c0-1.757-1.43-3.187-3.186-3.187H58.6z"/>
		</defs>
		<clipPath id="SVGID_7_">
			<use xlink:href="#SVGID_6_" overflow="visible"/>
		</clipPath>
		
			<linearGradient id="SVGID_8_" gradientUnits="userSpaceOnUse" x1="0" y1="141.7319" x2="1" y2="141.7319" gradientTransform="matrix(32.3164 0 0 -32.3164 55.4193 4677.5156)">
			<stop offset="0" style="stop-color:#9FA0A0"/>
			<stop offset="1" style="stop-color:#000000"/>
		</linearGradient>
		<rect x="55.414" y="81.109" clip-path="url(#SVGID_7_)" fill="url(#SVGID_8_)" width="32.316" height="32.314"/>
	</g>
	<g clip-path="url(#SVGID_2_)">
		<defs>
			<path id="SVGID_9_" d="M58.793,81.81c-1.477,0-2.678,1.201-2.678,2.677v25.555c0,1.479,1.201,2.683,2.678,2.683H84.35     c1.479,0,2.68-1.203,2.68-2.683V84.487c0-1.476-1.2-2.677-2.68-2.677H58.793z"/>
		</defs>
		<clipPath id="SVGID_10_">
			<use xlink:href="#SVGID_9_" overflow="visible"/>
		</clipPath>
		
			<linearGradient id="SVGID_11_" gradientUnits="userSpaceOnUse" x1="0" y1="141.7329" x2="1" y2="141.7329" gradientTransform="matrix(29.3435 29.3435 29.3435 -29.3435 -4102.0117 4241.5127)">
			<stop offset="0" style="stop-color:#000000"/>
			<stop offset="1" style="stop-color:#9FA0A0"/>
		</linearGradient>
		<polygon clip-path="url(#SVGID_10_)" fill="url(#SVGID_11_)" points="71.572,66.353 102.486,97.267 71.572,128.181 40.658,97.267       "/>
	</g>
	<g clip-path="url(#SVGID_2_)">
		<defs>
			<rect id="SVGID_12_" width="141.732" height="141.732"/>
		</defs>
		<clipPath id="SVGID_13_">
			<use xlink:href="#SVGID_12_" overflow="visible"/>
		</clipPath>
		<path clip-path="url(#SVGID_13_)" fill="#FFFFFF" d="M59.035,112.023c-1.223,0-2.219-0.998-2.219-2.223V84.73    c0-1.223,0.996-2.219,2.219-2.219h25.072c1.225,0,2.221,0.996,2.221,2.219v25.07c0,1.225-0.996,2.223-2.221,2.223H59.035z"/>
		<g opacity="0.4" clip-path="url(#SVGID_13_)">
			<g>
				<defs>
					<rect id="SVGID_14_" x="54.564" y="80.257" width="34.016" height="17.01"/>
				</defs>
				<clipPath id="SVGID_15_">
					<use xlink:href="#SVGID_14_" overflow="visible"/>
				</clipPath>
				<path clip-path="url(#SVGID_15_)" fill="#FFFFFF" d="M58.24,97.267c-2.027,0-3.676-1.65-3.676-3.68v-9.652      c0-2.027,1.649-3.678,3.676-3.678h26.662c2.029,0,3.678,1.65,3.678,3.678v9.652c0,2.029-1.648,3.68-3.678,3.68H58.24z"/>
			</g>
		</g>
	</g>
	<g clip-path="url(#SVGID_2_)">
		<defs>
			<path id="SVGID_16_" d="M32.729,29.236c-2.028,0-3.676,1.65-3.676,3.677v26.659c0,2.029,1.648,3.68,3.676,3.68h26.663     c2.028,0,3.677-1.651,3.677-3.68V32.913c0-2.027-1.649-3.677-3.677-3.677H32.729z"/>
		</defs>
		<clipPath id="SVGID_17_">
			<use xlink:href="#SVGID_16_" overflow="visible"/>
		</clipPath>
		
			<linearGradient id="SVGID_18_" gradientUnits="userSpaceOnUse" x1="9.765625e-004" y1="141.731" x2="1.001" y2="141.731" gradientTransform="matrix(-1.500000e-006 -34.0166 -34.0166 1.500000e-006 4867.2944 63.2551)">
			<stop offset="0" style="stop-color:#000000"/>
			<stop offset="0.1205" style="stop-color:#535151"/>
			<stop offset="0.3277" style="stop-color:#969696"/>
			<stop offset="0.4768" style="stop-color:#BCBCBD"/>
			<stop offset="0.5519" style="stop-color:#C9CACA"/>
			<stop offset="0.6018" style="stop-color:#C1C2C2"/>
			<stop offset="0.6869" style="stop-color:#ABACAD"/>
			<stop offset="0.7966" style="stop-color:#858585"/>
			<stop offset="0.9255" style="stop-color:#4C4948"/>
			<stop offset="0.9992" style="stop-color:#000000"/>
			<stop offset="1" style="stop-color:#000000"/>
		</linearGradient>
		<rect x="29.053" y="29.236" clip-path="url(#SVGID_17_)" fill="url(#SVGID_18_)" width="34.016" height="34.016"/>
	</g>
	<g clip-path="url(#SVGID_2_)">
		<defs>
			<path id="SVGID_19_" d="M33.088,30.087c-1.756,0-3.186,1.428-3.186,3.185v25.943c0,1.755,1.43,3.186,3.186,3.186h25.945     c1.756,0,3.186-1.431,3.186-3.186V33.272c0-1.757-1.43-3.185-3.186-3.185H33.088z"/>
		</defs>
		<clipPath id="SVGID_20_">
			<use xlink:href="#SVGID_19_" overflow="visible"/>
		</clipPath>
		
			<linearGradient id="SVGID_21_" gradientUnits="userSpaceOnUse" x1="0" y1="141.7329" x2="1" y2="141.7329" gradientTransform="matrix(32.3164 0 0 -32.3164 29.888 4626.5156)">
			<stop offset="0" style="stop-color:#9FA0A0"/>
			<stop offset="1" style="stop-color:#000000"/>
		</linearGradient>
		<rect x="29.902" y="30.087" clip-path="url(#SVGID_20_)" fill="url(#SVGID_21_)" width="32.317" height="32.314"/>
	</g>
	<g clip-path="url(#SVGID_2_)">
		<defs>
			<path id="SVGID_22_" d="M33.282,30.788c-1.477,0-2.677,1.202-2.677,2.678v25.553c0,1.479,1.2,2.682,2.677,2.682h25.557     c1.477,0,2.679-1.203,2.679-2.682V33.466c0-1.476-1.202-2.678-2.679-2.678H33.282z"/>
		</defs>
		<clipPath id="SVGID_23_">
			<use xlink:href="#SVGID_22_" overflow="visible"/>
		</clipPath>
		
			<linearGradient id="SVGID_24_" gradientUnits="userSpaceOnUse" x1="0" y1="141.731" x2="1" y2="141.731" gradientTransform="matrix(29.3429 29.3429 29.3429 -29.3429 -4127.4131 4190.3936)">
			<stop offset="0" style="stop-color:#000000"/>
			<stop offset="1" style="stop-color:#9FA0A0"/>
		</linearGradient>
		<polygon clip-path="url(#SVGID_23_)" fill="url(#SVGID_24_)" points="46.062,15.332 76.975,46.245 46.062,77.158 15.148,46.245       "/>
	</g>
	<g clip-path="url(#SVGID_2_)">
		<defs>
			<rect id="SVGID_25_" width="141.732" height="141.732"/>
		</defs>
		<clipPath id="SVGID_26_">
			<use xlink:href="#SVGID_25_" overflow="visible"/>
		</clipPath>
		<path clip-path="url(#SVGID_26_)" fill="#FFFFFF" d="M33.524,61c-1.224,0-2.219-0.998-2.219-2.223V33.708    c0-1.223,0.995-2.219,2.219-2.219h25.072c1.224,0,2.22,0.996,2.22,2.219v25.069c0,1.225-0.996,2.223-2.22,2.223H33.524z"/>
		<g opacity="0.4" clip-path="url(#SVGID_26_)">
			<g>
				<defs>
					<rect id="SVGID_27_" x="29.053" y="29.236" width="34.017" height="17.009"/>
				</defs>
				<clipPath id="SVGID_28_">
					<use xlink:href="#SVGID_27_" overflow="visible"/>
				</clipPath>
				<path clip-path="url(#SVGID_28_)" fill="#FFFFFF" d="M32.729,46.245c-2.028,0-3.677-1.65-3.677-3.681v-9.651      c0-2.027,1.649-3.678,3.677-3.678h26.662c2.028,0,3.678,1.651,3.678,3.678v9.651c0,2.031-1.65,3.681-3.678,3.681H32.729z"/>
			</g>
		</g>
	</g>
	<g clip-path="url(#SVGID_2_)">
		<defs>
			<path id="SVGID_29_" d="M83.752,29.236c-2.028,0-3.677,1.65-3.677,3.677v26.659c0,2.029,1.648,3.68,3.677,3.68h26.662     c2.028,0,3.678-1.651,3.678-3.68V32.913c0-2.027-1.649-3.677-3.678-3.677H83.752z"/>
		</defs>
		<clipPath id="SVGID_30_">
			<use xlink:href="#SVGID_29_" overflow="visible"/>
		</clipPath>
		
			<linearGradient id="SVGID_31_" gradientUnits="userSpaceOnUse" x1="9.765625e-004" y1="141.7319" x2="1.001" y2="141.7319" gradientTransform="matrix(-1.500000e-006 -34.0166 -34.0166 1.500000e-006 4918.3257 63.2551)">
			<stop offset="0" style="stop-color:#000000"/>
			<stop offset="0.1205" style="stop-color:#535151"/>
			<stop offset="0.3277" style="stop-color:#969696"/>
			<stop offset="0.4768" style="stop-color:#BCBCBD"/>
			<stop offset="0.5519" style="stop-color:#C9CACA"/>
			<stop offset="0.6018" style="stop-color:#C1C2C2"/>
			<stop offset="0.6869" style="stop-color:#ABACAD"/>
			<stop offset="0.7966" style="stop-color:#858585"/>
			<stop offset="0.9255" style="stop-color:#4C4948"/>
			<stop offset="0.9992" style="stop-color:#000000"/>
			<stop offset="1" style="stop-color:#000000"/>
		</linearGradient>
		<rect x="80.075" y="29.236" clip-path="url(#SVGID_30_)" fill="url(#SVGID_31_)" width="34.017" height="34.016"/>
	</g>
	<g clip-path="url(#SVGID_2_)">
		<defs>
			<path id="SVGID_32_" d="M84.11,30.087c-1.755,0-3.187,1.428-3.187,3.185v25.943c0,1.755,1.432,3.186,3.187,3.186h25.945     c1.756,0,3.187-1.431,3.187-3.186V33.272c0-1.757-1.431-3.185-3.187-3.185H84.11z"/>
		</defs>
		<clipPath id="SVGID_33_">
			<use xlink:href="#SVGID_32_" overflow="visible"/>
		</clipPath>
		
			<linearGradient id="SVGID_34_" gradientUnits="userSpaceOnUse" x1="-4.882813e-004" y1="141.7329" x2="1" y2="141.7329" gradientTransform="matrix(32.3164 0 0 -32.3164 80.9193 4626.5156)">
			<stop offset="0" style="stop-color:#9FA0A0"/>
			<stop offset="1" style="stop-color:#000000"/>
		</linearGradient>
		<rect x="80.924" y="30.087" clip-path="url(#SVGID_33_)" fill="url(#SVGID_34_)" width="32.318" height="32.314"/>
	</g>
	<g clip-path="url(#SVGID_2_)">
		<defs>
			<path id="SVGID_35_" d="M84.305,30.788c-1.478,0-2.678,1.202-2.678,2.678v25.553c0,1.479,1.2,2.682,2.678,2.682h25.557     c1.478,0,2.679-1.203,2.679-2.682V33.466c0-1.476-1.201-2.678-2.679-2.678H84.305z"/>
		</defs>
		<clipPath id="SVGID_36_">
			<use xlink:href="#SVGID_35_" overflow="visible"/>
		</clipPath>
		
			<linearGradient id="SVGID_37_" gradientUnits="userSpaceOnUse" x1="0" y1="141.7319" x2="1" y2="141.7319" gradientTransform="matrix(29.3429 29.3429 29.3429 -29.3429 -4076.4131 4190.3936)">
			<stop offset="0" style="stop-color:#000000"/>
			<stop offset="1" style="stop-color:#9FA0A0"/>
		</linearGradient>
		<polygon clip-path="url(#SVGID_36_)" fill="url(#SVGID_37_)" points="97.083,15.332 127.996,46.245 97.083,77.158 66.17,46.245       "/>
	</g>
	<g clip-path="url(#SVGID_2_)">
		<defs>
			<rect id="SVGID_38_" width="141.732" height="141.732"/>
		</defs>
		<clipPath id="SVGID_39_">
			<use xlink:href="#SVGID_38_" overflow="visible"/>
		</clipPath>
		<path clip-path="url(#SVGID_39_)" fill="#FFFFFF" d="M84.547,61c-1.224,0-2.219-0.998-2.219-2.223V33.708    c0-1.223,0.995-2.219,2.219-2.219h25.072c1.224,0,2.22,0.996,2.22,2.219v25.069c0,1.225-0.996,2.223-2.22,2.223H84.547z"/>
		<g opacity="0.4" clip-path="url(#SVGID_39_)">
			<g>
				<defs>
					<rect id="SVGID_40_" x="80.075" y="29.236" width="34.017" height="17.009"/>
				</defs>
				<clipPath id="SVGID_41_">
					<use xlink:href="#SVGID_40_" overflow="visible"/>
				</clipPath>
				<path clip-path="url(#SVGID_41_)" fill="#FFFFFF" d="M83.752,46.245c-2.028,0-3.677-1.65-3.677-3.681v-9.651      c0-2.027,1.648-3.678,3.677-3.678h26.662c2.028,0,3.678,1.651,3.678,3.678v9.651c0,2.031-1.649,3.681-3.678,3.681H83.752z"/>
			</g>
		</g>
		<polyline clip-path="url(#SVGID_39_)" fill="none" stroke="#000000" points="46.061,63.252 46.061,97.265 51.035,97.265   "/>
		<polygon clip-path="url(#SVGID_39_)" points="54.564,97.265 49.589,99.298 50.771,97.265 49.589,95.234   "/>
		<polyline clip-path="url(#SVGID_39_)" fill="none" stroke="#000000" points="97.416,63.252 97.416,97.265 92.442,97.265   "/>
		<polygon clip-path="url(#SVGID_39_)" points="88.912,97.265 93.887,95.232 92.706,97.265 93.887,99.298   "/>
	</g>
</g>
</svg>