<?xml version="1.0" encoding="utf-8"?>
<!-- Generator: Adobe Illustrator 14.0.0, SVG Export Plug-In . SVG Version: 6.00 Build 43363)  -->
<!DOCTYPE svg PUBLIC "-//W3C//DTD SVG 1.1//EN" "http://www.w3.org/Graphics/SVG/1.1/DTD/svg11.dtd">
<svg version="1.1" id="Layer_1" xmlns="http://www.w3.org/2000/svg" xmlns:xlink="http://www.w3.org/1999/xlink" x="0px" y="0px"
	 width="141.732px" height="141.732px" viewBox="0 0 141.732 141.732" enable-background="new 0 0 141.732 141.732"
	 xml:space="preserve">
<g>
	<defs>
		<rect id="SVGID_1_" width="141.732" height="141.732"/>
	</defs>
	<clipPath id="SVGID_2_">
		<use xlink:href="#SVGID_1_"  overflow="visible"/>
	</clipPath>
	<g clip-path="url(#SVGID_2_)">
		<defs>
			<path id="SVGID_3_" d="M57.938,29.237c-2.027,0-3.675,1.65-3.675,3.677v26.66c0,2.028,1.648,3.679,3.675,3.679h26.663
				c2.029,0,3.678-1.651,3.678-3.679v-26.66c0-2.027-1.648-3.677-3.678-3.677H57.938z"/>
		</defs>
		<clipPath id="SVGID_4_">
			<use xlink:href="#SVGID_3_"  overflow="visible"/>
		</clipPath>
		
			<linearGradient id="SVGID_5_" gradientUnits="userSpaceOnUse" x1="9.765625e-004" y1="141.7329" x2="1.001" y2="141.7329" gradientTransform="matrix(-1.500000e-006 -34.0166 -34.0166 1.500000e-006 4892.5132 63.2551)">
			<stop  offset="0" style="stop-color:#000000"/>
			<stop  offset="0.1205" style="stop-color:#535151"/>
			<stop  offset="0.3277" style="stop-color:#969696"/>
			<stop  offset="0.4768" style="stop-color:#BCBCBD"/>
			<stop  offset="0.5519" style="stop-color:#C9CACA"/>
			<stop  offset="0.6018" style="stop-color:#C1C2C2"/>
			<stop  offset="0.6869" style="stop-color:#ABACAD"/>
			<stop  offset="0.7966" style="stop-color:#858585"/>
			<stop  offset="0.9255" style="stop-color:#4C4948"/>
			<stop  offset="0.9992" style="stop-color:#000000"/>
			<stop  offset="1" style="stop-color:#000000"/>
		</linearGradient>
		<rect x="54.263" y="29.237" clip-path="url(#SVGID_4_)" fill="url(#SVGID_5_)" width="34.015" height="34.016"/>
	</g>
	<g clip-path="url(#SVGID_2_)">
		<defs>
			<path id="SVGID_6_" d="M58.298,30.088c-1.756,0-3.186,1.429-3.186,3.186v25.942c0,1.755,1.43,3.185,3.186,3.185h25.946
				c1.755,0,3.185-1.43,3.185-3.185V33.274c0-1.757-1.43-3.186-3.185-3.186H58.298z"/>
		</defs>
		<clipPath id="SVGID_7_">
			<use xlink:href="#SVGID_6_"  overflow="visible"/>
		</clipPath>
		
			<linearGradient id="SVGID_8_" gradientUnits="userSpaceOnUse" x1="0" y1="141.7329" x2="1" y2="141.7329" gradientTransform="matrix(32.3164 0 0 -32.3164 55.1068 4626.5156)">
			<stop  offset="0" style="stop-color:#9FA0A0"/>
			<stop  offset="1" style="stop-color:#000000"/>
		</linearGradient>
		<rect x="55.112" y="30.088" clip-path="url(#SVGID_7_)" fill="url(#SVGID_8_)" width="32.317" height="32.313"/>
	</g>
	<g clip-path="url(#SVGID_2_)">
		<defs>
			<path id="SVGID_9_" d="M58.491,30.789c-1.476,0-2.677,1.201-2.677,2.677V59.02c0,1.479,1.201,2.682,2.677,2.682h25.556
				c1.479,0,2.681-1.203,2.681-2.682V33.466c0-1.476-1.201-2.677-2.681-2.677H58.491z"/>
		</defs>
		<clipPath id="SVGID_10_">
			<use xlink:href="#SVGID_9_"  overflow="visible"/>
		</clipPath>
		
			<linearGradient id="SVGID_11_" gradientUnits="userSpaceOnUse" x1="0" y1="141.7329" x2="1" y2="141.7329" gradientTransform="matrix(29.3429 29.3429 29.3429 -29.3429 -4102.2256 4190.3955)">
			<stop  offset="0" style="stop-color:#000000"/>
			<stop  offset="1" style="stop-color:#9FA0A0"/>
		</linearGradient>
		<polygon clip-path="url(#SVGID_10_)" fill="url(#SVGID_11_)" points="71.271,15.332 102.185,46.246 71.271,77.159 40.357,46.246 
					"/>
	</g>
	<g clip-path="url(#SVGID_2_)">
		<defs>
			<rect id="SVGID_12_" width="141.732" height="141.732"/>
		</defs>
		<clipPath id="SVGID_13_">
			<use xlink:href="#SVGID_12_"  overflow="visible"/>
		</clipPath>
		<path clip-path="url(#SVGID_13_)" fill="#FFFFFF" d="M58.733,61.001c-1.223,0-2.219-0.998-2.219-2.223V33.709
			c0-1.223,0.996-2.219,2.219-2.219h25.072c1.225,0,2.221,0.996,2.221,2.219v25.069c0,1.225-0.996,2.223-2.221,2.223H58.733z"/>
		<g opacity="0.4" clip-path="url(#SVGID_13_)">
			<g>
				<defs>
					<rect id="SVGID_14_" x="54.263" y="29.236" width="34.016" height="17.01"/>
				</defs>
				<clipPath id="SVGID_15_">
					<use xlink:href="#SVGID_14_"  overflow="visible"/>
				</clipPath>
				<path clip-path="url(#SVGID_15_)" fill="#FFFFFF" d="M57.938,46.246c-2.027,0-3.676-1.65-3.676-3.681v-9.651
					c0-2.027,1.649-3.678,3.676-3.678h26.662c2.029,0,3.678,1.651,3.678,3.678v9.651c0,2.031-1.648,3.681-3.678,3.681H57.938z"/>
			</g>
		</g>
	</g>
	<g clip-path="url(#SVGID_2_)">
		<defs>
			<path id="SVGID_16_" d="M32.428,80.257c-2.029,0-3.677,1.65-3.677,3.678v26.658c0,2.028,1.648,3.68,3.677,3.68H59.09
				c2.028,0,3.678-1.651,3.678-3.68V83.935c0-2.027-1.65-3.678-3.678-3.678H32.428z"/>
		</defs>
		<clipPath id="SVGID_17_">
			<use xlink:href="#SVGID_16_"  overflow="visible"/>
		</clipPath>
		
			<linearGradient id="SVGID_18_" gradientUnits="userSpaceOnUse" x1="9.765625e-004" y1="141.7319" x2="1.001" y2="141.7319" gradientTransform="matrix(-1.500000e-006 -34.0156 -34.0156 1.500000e-006 4866.8813 114.2791)">
			<stop  offset="0" style="stop-color:#000000"/>
			<stop  offset="0.1205" style="stop-color:#535151"/>
			<stop  offset="0.3277" style="stop-color:#969696"/>
			<stop  offset="0.4768" style="stop-color:#BCBCBD"/>
			<stop  offset="0.5519" style="stop-color:#C9CACA"/>
			<stop  offset="0.6018" style="stop-color:#C1C2C2"/>
			<stop  offset="0.6869" style="stop-color:#ABACAD"/>
			<stop  offset="0.7966" style="stop-color:#858585"/>
			<stop  offset="0.9255" style="stop-color:#4C4948"/>
			<stop  offset="0.9992" style="stop-color:#000000"/>
			<stop  offset="1" style="stop-color:#000000"/>
		</linearGradient>
		<rect x="28.751" y="80.257" clip-path="url(#SVGID_17_)" fill="url(#SVGID_18_)" width="34.017" height="34.016"/>
	</g>
	<g clip-path="url(#SVGID_2_)">
		<defs>
			<path id="SVGID_19_" d="M32.786,81.109c-1.756,0-3.185,1.427-3.185,3.187v25.94c0,1.756,1.429,3.187,3.185,3.187h25.945
				c1.756,0,3.186-1.431,3.186-3.187v-25.94c0-1.76-1.43-3.187-3.186-3.187H32.786z"/>
		</defs>
		<clipPath id="SVGID_20_">
			<use xlink:href="#SVGID_19_"  overflow="visible"/>
		</clipPath>
		
			<linearGradient id="SVGID_21_" gradientUnits="userSpaceOnUse" x1="0" y1="141.7319" x2="1" y2="141.7319" gradientTransform="matrix(32.3164 0 0 -32.3164 29.6068 4677.5156)">
			<stop  offset="0" style="stop-color:#9FA0A0"/>
			<stop  offset="1" style="stop-color:#000000"/>
		</linearGradient>
		<rect x="29.601" y="81.109" clip-path="url(#SVGID_20_)" fill="url(#SVGID_21_)" width="32.316" height="32.313"/>
	</g>
	<g clip-path="url(#SVGID_2_)">
		<defs>
			<path id="SVGID_22_" d="M32.98,81.81c-1.477,0-2.677,1.201-2.677,2.677v25.553c0,1.479,1.2,2.683,2.677,2.683h25.557
				c1.478,0,2.679-1.203,2.679-2.683V84.487c0-1.476-1.201-2.677-2.679-2.677H32.98z"/>
		</defs>
		<clipPath id="SVGID_23_">
			<use xlink:href="#SVGID_22_"  overflow="visible"/>
		</clipPath>
		
			<linearGradient id="SVGID_24_" gradientUnits="userSpaceOnUse" x1="0" y1="141.731" x2="1" y2="141.731" gradientTransform="matrix(29.3415 29.3415 29.3415 -29.3415 -4127.5283 4241.2197)">
			<stop  offset="0" style="stop-color:#000000"/>
			<stop  offset="1" style="stop-color:#9FA0A0"/>
		</linearGradient>
		<polygon clip-path="url(#SVGID_23_)" fill="url(#SVGID_24_)" points="45.759,66.354 76.672,97.266 45.759,128.178 14.847,97.266 
					"/>
	</g>
	<g clip-path="url(#SVGID_2_)">
		<defs>
			<rect id="SVGID_25_" width="141.732" height="141.732"/>
		</defs>
		<clipPath id="SVGID_26_">
			<use xlink:href="#SVGID_25_"  overflow="visible"/>
		</clipPath>
		<path clip-path="url(#SVGID_26_)" fill="#FFFFFF" d="M33.223,112.021c-1.224,0-2.219-0.998-2.219-2.223V84.73
			c0-1.223,0.995-2.219,2.219-2.219h25.072c1.224,0,2.22,0.996,2.22,2.219v25.068c0,1.225-0.996,2.223-2.22,2.223H33.223z"/>
		<g opacity="0.4" clip-path="url(#SVGID_26_)">
			<g>
				<defs>
					<rect id="SVGID_27_" x="28.751" y="80.257" width="34.017" height="17.01"/>
				</defs>
				<clipPath id="SVGID_28_">
					<use xlink:href="#SVGID_27_"  overflow="visible"/>
				</clipPath>
				<path clip-path="url(#SVGID_28_)" fill="#FFFFFF" d="M32.428,97.267c-2.028,0-3.677-1.65-3.677-3.682v-9.65
					c0-2.027,1.649-3.678,3.677-3.678H59.09c2.028,0,3.678,1.65,3.678,3.678v9.65c0,2.031-1.65,3.682-3.678,3.682H32.428z"/>
			</g>
		</g>
	</g>
	<g clip-path="url(#SVGID_2_)">
		<defs>
			<path id="SVGID_29_" d="M83.45,80.257c-2.028,0-3.677,1.65-3.677,3.678v26.658c0,2.028,1.648,3.68,3.677,3.68h26.662
				c2.028,0,3.678-1.651,3.678-3.68V83.935c0-2.027-1.649-3.678-3.678-3.678H83.45z"/>
		</defs>
		<clipPath id="SVGID_30_">
			<use xlink:href="#SVGID_29_"  overflow="visible"/>
		</clipPath>
		
			<linearGradient id="SVGID_31_" gradientUnits="userSpaceOnUse" x1="9.765625e-004" y1="141.731" x2="1.001" y2="141.731" gradientTransform="matrix(-1.500000e-006 -34.0156 -34.0156 1.500000e-006 4917.8813 114.2791)">
			<stop  offset="0" style="stop-color:#000000"/>
			<stop  offset="0.1205" style="stop-color:#535151"/>
			<stop  offset="0.3277" style="stop-color:#969696"/>
			<stop  offset="0.4768" style="stop-color:#BCBCBD"/>
			<stop  offset="0.5519" style="stop-color:#C9CACA"/>
			<stop  offset="0.6018" style="stop-color:#C1C2C2"/>
			<stop  offset="0.6869" style="stop-color:#ABACAD"/>
			<stop  offset="0.7966" style="stop-color:#858585"/>
			<stop  offset="0.9255" style="stop-color:#4C4948"/>
			<stop  offset="0.9992" style="stop-color:#000000"/>
			<stop  offset="1" style="stop-color:#000000"/>
		</linearGradient>
		<rect x="79.773" y="80.257" clip-path="url(#SVGID_30_)" fill="url(#SVGID_31_)" width="34.017" height="34.016"/>
	</g>
	<g clip-path="url(#SVGID_2_)">
		<defs>
			<path id="SVGID_32_" d="M83.809,81.109c-1.756,0-3.186,1.427-3.186,3.187v25.94c0,1.756,1.43,3.187,3.186,3.187h25.945
				c1.756,0,3.186-1.431,3.186-3.187v-25.94c0-1.76-1.43-3.187-3.186-3.187H83.809z"/>
		</defs>
		<clipPath id="SVGID_33_">
			<use xlink:href="#SVGID_32_"  overflow="visible"/>
		</clipPath>
		
			<linearGradient id="SVGID_34_" gradientUnits="userSpaceOnUse" x1="-4.882813e-004" y1="141.7319" x2="0.9995" y2="141.7319" gradientTransform="matrix(32.3164 0 0 -32.3164 80.638 4677.5156)">
			<stop  offset="0" style="stop-color:#9FA0A0"/>
			<stop  offset="1" style="stop-color:#000000"/>
		</linearGradient>
		<rect x="80.623" y="81.109" clip-path="url(#SVGID_33_)" fill="url(#SVGID_34_)" width="32.316" height="32.313"/>
	</g>
	<g clip-path="url(#SVGID_2_)">
		<defs>
			<path id="SVGID_35_" d="M84.003,81.81c-1.478,0-2.678,1.201-2.678,2.677v25.553c0,1.479,1.2,2.683,2.678,2.683h25.557
				c1.479,0,2.679-1.203,2.679-2.683V84.487c0-1.476-1.2-2.677-2.679-2.677H84.003z"/>
		</defs>
		<clipPath id="SVGID_36_">
			<use xlink:href="#SVGID_35_"  overflow="visible"/>
		</clipPath>
		
			<linearGradient id="SVGID_37_" gradientUnits="userSpaceOnUse" x1="0" y1="141.731" x2="1" y2="141.731" gradientTransform="matrix(29.3415 29.3415 29.3415 -29.3415 -4076.4971 4241.2197)">
			<stop  offset="0" style="stop-color:#000000"/>
			<stop  offset="1" style="stop-color:#9FA0A0"/>
		</linearGradient>
		<polygon clip-path="url(#SVGID_36_)" fill="url(#SVGID_37_)" points="96.781,66.354 127.694,97.266 96.781,128.178 65.869,97.266 
					"/>
	</g>
	<g clip-path="url(#SVGID_2_)">
		<defs>
			<rect id="SVGID_38_" width="141.732" height="141.732"/>
		</defs>
		<clipPath id="SVGID_39_">
			<use xlink:href="#SVGID_38_"  overflow="visible"/>
		</clipPath>
		<path clip-path="url(#SVGID_39_)" fill="#FFFFFF" d="M84.245,112.021c-1.224,0-2.219-0.998-2.219-2.223V84.73
			c0-1.223,0.995-2.219,2.219-2.219h25.072c1.224,0,2.22,0.996,2.22,2.219v25.068c0,1.225-0.996,2.223-2.22,2.223H84.245z"/>
		<g opacity="0.4" clip-path="url(#SVGID_39_)">
			<g>
				<defs>
					<rect id="SVGID_40_" x="79.773" y="80.257" width="34.017" height="17.01"/>
				</defs>
				<clipPath id="SVGID_41_">
					<use xlink:href="#SVGID_40_"  overflow="visible"/>
				</clipPath>
				<path clip-path="url(#SVGID_41_)" fill="#FFFFFF" d="M83.45,97.267c-2.028,0-3.677-1.65-3.677-3.682v-9.65
					c0-2.027,1.648-3.678,3.677-3.678h26.662c2.028,0,3.678,1.65,3.678,3.678v9.65c0,2.031-1.649,3.682-3.678,3.682H83.45z"/>
			</g>
		</g>
		<polyline clip-path="url(#SVGID_39_)" fill="none" stroke="#000000" points="96.782,76.728 96.782,46.244 88.278,46.244 		"/>
		<polygon clip-path="url(#SVGID_39_)" points="96.782,80.257 98.814,75.283 96.782,76.464 94.75,75.283 		"/>
		<polyline clip-path="url(#SVGID_39_)" fill="none" stroke="#000000" points="45.427,76.728 45.427,46.244 53.931,46.244 		"/>
		<polygon clip-path="url(#SVGID_39_)" points="45.427,80.257 47.459,75.283 45.427,76.464 43.395,75.283 		"/>
	</g>
</g>
</svg>
