<?xml version="1.0" encoding="utf-8"?>
<!-- Generator: Adobe Illustrator 14.0.0, SVG Export Plug-In . SVG Version: 6.00 Build 43363)  -->
<!DOCTYPE svg PUBLIC "-//W3C//DTD SVG 1.1//EN" "http://www.w3.org/Graphics/SVG/1.1/DTD/svg11.dtd">
<svg version="1.1" id="Layer_1" xmlns="http://www.w3.org/2000/svg" xmlns:xlink="http://www.w3.org/1999/xlink" x="0px" y="0px"
	 width="340.157px" height="340.157px" viewBox="0 0 340.157 340.157" enable-background="new 0 0 340.157 340.157"
	 xml:space="preserve">
<line fill="none" stroke="#000000" stroke-width="4" stroke-miterlimit="10" x1="74.581" y1="70.078" x2="274.596" y2="70.078"/>
<line fill="none" stroke="#000000" stroke-width="4" stroke-miterlimit="10" x1="74.581" y1="120.077" x2="274.596" y2="120.077"/>
<line fill="none" stroke="#000000" stroke-width="4" stroke-miterlimit="10" x1="74.581" y1="170.077" x2="274.596" y2="170.077"/>
<line fill="none" stroke="#000000" stroke-width="4" stroke-miterlimit="10" x1="74.581" y1="220.076" x2="274.596" y2="220.076"/>
<line fill="none" stroke="#000000" stroke-width="4" stroke-miterlimit="10" x1="74.593" y1="70.078" x2="74.593" y2="270.078"/>
<line fill="none" stroke="#000000" stroke-width="4" stroke-miterlimit="10" x1="124.592" y1="70.078" x2="124.592" y2="270.079"/>
<line fill="none" stroke="#000000" stroke-width="4" stroke-miterlimit="10" x1="174.591" y1="70.078" x2="174.591" y2="270.079"/>
<line fill="none" stroke="#000000" stroke-width="4" stroke-miterlimit="10" x1="224.59" y1="70.078" x2="224.59" y2="270.079"/>
<polygon fill="#522B78" points="250.239,180.197 244.989,184.911 244.625,217.713 195.895,170.309 229.805,170.144 235.625,164.454 
	234.199,142.058 158.175,142.623 149.479,151.374 149.479,230.94 166.064,232.135 173.067,226.746 173.722,184.161 228.36,240.646 
	185.872,241.274 181.363,246.987 183.089,270.06 258.508,270.093 267.887,267.553 274.23,260.634 274.886,181.963 "/>
<polygon fill="#764D9C" points="245.196,184.939 244.45,228.65 184.954,170.649 229.792,169.922 228.142,147.016 153.007,147.934 
	143.418,157.282 142.477,230.527 165.974,232.135 166.72,188.424 226.216,246.425 181.377,247.152 183.03,270.061 258.345,270.061 
	267.752,259.794 268.696,186.549 "/>
<polygon fill="#A075B1" points="185.369,267.615 184.065,249.554 232.174,248.774 164.311,182.617 163.509,229.515 145.013,228.249 
	145.914,158.307 154.06,150.367 225.805,149.489 227.103,167.52 178.996,168.3 246.861,234.458 247.66,187.559 266.158,188.827 
	265.255,258.848 257.222,267.615 "/>
</svg>
