<?xml version="1.0" encoding="utf-8"?>
<!-- Generator: Adobe Illustrator 14.0.0, SVG Export Plug-In . SVG Version: 6.00 Build 43363)  -->
<!DOCTYPE svg PUBLIC "-//W3C//DTD SVG 1.1//EN" "http://www.w3.org/Graphics/SVG/1.1/DTD/svg11.dtd">
<svg version="1.1" id="Layer_1" xmlns="http://www.w3.org/2000/svg" xmlns:xlink="http://www.w3.org/1999/xlink" x="0px" y="0px"
	 width="340.157px" height="340.157px" viewBox="0 0 340.157 340.157" enable-background="new 0 0 340.157 340.157"
	 xml:space="preserve">
<line fill="none" stroke="#000000" stroke-width="4" stroke-miterlimit="10" x1="96.88" y1="71.068" x2="96.88" y2="271.069"/>
<line fill="none" stroke="#000000" stroke-width="4" stroke-miterlimit="10" x1="116.88" y1="71.068" x2="116.88" y2="271.069"/>
<line fill="none" stroke="#000000" stroke-width="4" stroke-miterlimit="10" x1="136.88" y1="71.068" x2="136.88" y2="271.069"/>
<line fill="none" stroke="#000000" stroke-width="4" stroke-miterlimit="10" x1="156.88" y1="71.068" x2="156.88" y2="271.069"/>
<line fill="none" stroke="#000000" stroke-width="4" stroke-miterlimit="10" x1="176.88" y1="71.068" x2="176.88" y2="271.069"/>
<line fill="none" stroke="#000000" stroke-width="4" stroke-miterlimit="10" x1="196.88" y1="71.068" x2="196.88" y2="271.069"/>
<line fill="none" stroke="#000000" stroke-width="4" stroke-miterlimit="10" x1="216.88" y1="71.068" x2="216.88" y2="271.069"/>
<line fill="none" stroke="#000000" stroke-width="4" stroke-miterlimit="10" x1="236.881" y1="71.068" x2="236.881" y2="271.069"/>
<line fill="none" stroke="#000000" stroke-width="4" stroke-miterlimit="10" x1="256.881" y1="71.068" x2="256.881" y2="271.069"/>
<line fill="none" stroke="#000000" stroke-width="4" stroke-miterlimit="10" x1="76.88" y1="91.068" x2="276.881" y2="91.068"/>
<line fill="none" stroke="#000000" stroke-width="4" stroke-miterlimit="10" x1="76.88" y1="111.068" x2="276.881" y2="111.068"/>
<line fill="none" stroke="#000000" stroke-width="4" stroke-miterlimit="10" x1="76.88" y1="131.068" x2="276.881" y2="131.068"/>
<line fill="none" stroke="#000000" stroke-width="4" stroke-miterlimit="10" x1="76.88" y1="151.068" x2="276.881" y2="151.068"/>
<line fill="none" stroke="#000000" stroke-width="4" stroke-miterlimit="10" x1="76.88" y1="171.069" x2="276.881" y2="171.069"/>
<line fill="none" stroke="#000000" stroke-width="4" stroke-miterlimit="10" x1="76.88" y1="191.069" x2="276.881" y2="191.069"/>
<line fill="none" stroke="#000000" stroke-width="4" stroke-miterlimit="10" x1="76.88" y1="211.069" x2="276.881" y2="211.069"/>
<line fill="none" stroke="#000000" stroke-width="4" stroke-miterlimit="10" x1="76.88" y1="231.069" x2="276.881" y2="231.069"/>
<line fill="none" stroke="#000000" stroke-width="4" stroke-miterlimit="10" x1="76.88" y1="251.069" x2="276.881" y2="251.069"/>
<rect x="76.88" y="71.068" fill="none" stroke="#000000" stroke-width="4" stroke-linejoin="round" stroke-miterlimit="10" width="200.001" height="200"/>
<g>
	<defs>
		<rect id="SVGID_1_" y="0" width="340.157" height="340.157"/>
	</defs>
	<clipPath id="SVGID_2_">
		<use xlink:href="#SVGID_1_"  overflow="visible"/>
	</clipPath>
	<path clip-path="url(#SVGID_2_)" fill="#9A6000" d="M108.345,211.005c-1.066,0-1.979-0.513-1.979-2.152l0.091-56.407l-4.825,4.416
		c-0.9,0.842-1.819,1.127-2.444,0.307l-6.268-7.01c-0.833-0.922-0.416-1.537,0.834-2.664l16.473-15.099
		c0.73-0.615,1.563-0.923,2.5-0.923h6.876c3.021,0,3.125,0.206,3.125,3.588v73.792c0,1.538-0.416,2.152-1.979,2.152H108.345z"/>
	<path clip-path="url(#SVGID_2_)" fill="#9A6000" d="M150.071,171.306c0-16.102,4.153-40.308,26.13-40.308
		c21.875,0,25.926,24.307,25.926,40.308c0,24.205-7.9,40.308-25.926,40.308C157.97,211.614,150.071,195.613,150.071,171.306
		 M163.946,171.306c0,20.762,5.469,27.142,12.255,27.142c6.784,0,12.254-6.38,12.254-27.142c0-20.66-5.47-27.142-12.254-27.142
		C169.416,144.164,163.946,150.646,163.946,171.306"/>
	<path clip-path="url(#SVGID_2_)" fill="#9A6000" d="M210.02,170.831c0-16.102,4.152-40.308,26.129-40.308
		c21.876,0,25.927,24.307,25.927,40.308c0,24.205-7.899,40.308-25.927,40.308C217.919,211.138,210.02,195.137,210.02,170.831
		 M223.895,170.831c0,20.762,5.469,27.143,12.254,27.143c6.786,0,12.255-6.381,12.255-27.143c0-20.66-5.469-27.142-12.255-27.142
		C229.364,143.688,223.895,150.17,223.895,170.831"/>
	<path clip-path="url(#SVGID_2_)" fill="#FABD00" d="M108.333,208.294c-1.485,0-1.881-0.495-1.881-2.079v-56.427l-6.039,5.742
		c-1.089,0.989-1.881,1.088-2.475,0.297l-5.841-6.633c-0.791-0.891-0.396-1.485,0.793-2.574l15.245-14.255
		c0.693-0.594,1.485-0.892,2.375-0.892h6.534c2.871,0,2.97,0.199,2.97,3.465v71.277c0,1.485-0.396,2.079-1.88,2.079H108.333z"/>
	<path clip-path="url(#SVGID_2_)" fill="#F8E646" d="M108.333,206.735c-0.127,0-0.225-0.005-0.298-0.011
		c-0.013-0.109-0.024-0.271-0.024-0.508v-60.063l-8.672,8.246c-0.138,0.125-0.251,0.213-0.339,0.274l-5.607-6.367
		c0.112-0.121,0.283-0.293,0.55-0.537l15.257-14.267c0.36-0.306,0.792-0.47,1.31-0.47h6.534c0.292,0,0.977,0,1.348,0.048
		c0.063,0.429,0.063,1.3,0.063,1.857v71.278c0,0.242-0.014,0.403-0.028,0.505c-0.069,0.008-0.164,0.014-0.293,0.014H108.333z"/>
	<path clip-path="url(#SVGID_2_)" fill="#FABD00" d="M146.942,169.982c0-15.74,4.059-39.4,25.542-39.4
		c21.382,0,25.343,23.759,25.343,39.4c0,23.661-7.722,39.401-25.343,39.401C154.664,209.383,146.942,193.743,146.942,169.982
		 M160.505,169.982c0,20.295,5.346,26.531,11.979,26.531c6.632,0,11.978-6.235,11.978-26.531c0-20.195-5.346-26.53-11.978-26.53
		C165.851,143.453,160.505,149.788,160.505,169.982"/>
	<path clip-path="url(#SVGID_2_)" fill="#F8E646" d="M172.483,207.824c-19.821,0-23.981-20.578-23.981-37.841
		c0-14.133,3.115-37.841,23.981-37.841c20.694,0,23.784,23.708,23.784,37.841C196.267,187.246,192.141,207.824,172.483,207.824
		 M172.483,141.893c-8.982,0-13.538,9.451-13.538,28.09c0,18.639,4.555,28.09,13.538,28.09c8.983,0,13.538-9.451,13.538-28.09
		C186.021,151.344,181.466,141.893,172.483,141.893"/>
	<path clip-path="url(#SVGID_2_)" fill="#FABD00" d="M206.934,169.982c0-15.74,4.059-39.4,25.542-39.4
		c21.382,0,25.343,23.759,25.343,39.4c0,23.661-7.722,39.401-25.343,39.401C214.656,209.383,206.934,193.743,206.934,169.982
		 M220.498,169.982c0,20.295,5.346,26.531,11.979,26.531c6.632,0,11.978-6.235,11.978-26.531c0-20.195-5.346-26.53-11.978-26.53
		C225.843,143.453,220.498,149.788,220.498,169.982"/>
	<path clip-path="url(#SVGID_2_)" fill="#F8E646" d="M232.476,207.824c-19.821,0-23.982-20.578-23.982-37.841
		c0-14.133,3.115-37.841,23.982-37.841c20.693,0,23.783,23.708,23.783,37.841C256.259,187.246,252.133,207.824,232.476,207.824
		 M232.476,141.893c-8.983,0-13.538,9.451-13.538,28.09c0,18.639,4.555,28.09,13.538,28.09c8.982,0,13.538-9.451,13.538-28.09
		C246.014,151.344,241.458,141.893,232.476,141.893"/>
</g>
</svg>
