<?xml version="1.0" encoding="utf-8"?>
<!-- Generator: Adobe Illustrator 14.0.0, SVG Export Plug-In . SVG Version: 6.00 Build 43363)  -->
<!DOCTYPE svg PUBLIC "-//W3C//DTD SVG 1.1//EN" "http://www.w3.org/Graphics/SVG/1.1/DTD/svg11.dtd">
<svg version="1.1" id="Layer_1" xmlns="http://www.w3.org/2000/svg" xmlns:xlink="http://www.w3.org/1999/xlink" x="0px" y="0px"
	 width="340.157px" height="340.157px" viewBox="0 0 340.157 340.157" enable-background="new 0 0 340.157 340.157"
	 xml:space="preserve">
<rect x="146.323" y="145.08" fill="#2A9ACE" width="49.999" height="49.999"/>
<rect x="96.324" y="145.08" fill="#22AC39" width="49.999" height="49.999"/>
<rect x="96.324" y="95.08" fill="#C30F23" width="49.999" height="49.999"/>
<rect x="146.322" y="95.08" fill="#FAEE00" width="49.999" height="49.999"/>
<line fill="none" stroke="#000000" stroke-width="4" stroke-miterlimit="10" x1="71.321" y1="95.08" x2="271.322" y2="95.08"/>
<line fill="none" stroke="#000000" stroke-width="4" stroke-miterlimit="10" x1="71.321" y1="145.079" x2="271.322" y2="145.079"/>
<line fill="none" stroke="#000000" stroke-width="4" stroke-miterlimit="10" x1="71.321" y1="195.079" x2="271.322" y2="195.079"/>
<line fill="none" stroke="#000000" stroke-width="4" stroke-miterlimit="10" x1="71.321" y1="245.078" x2="271.322" y2="245.078"/>
<line fill="none" stroke="#000000" stroke-width="4" stroke-miterlimit="10" x1="96.323" y1="70.078" x2="96.323" y2="270.079"/>
<line fill="none" stroke="#000000" stroke-width="4" stroke-miterlimit="10" x1="146.322" y1="70.078" x2="146.322" y2="270.079"/>
<line fill="none" stroke="#000000" stroke-width="4" stroke-miterlimit="10" x1="196.322" y1="70.078" x2="196.322" y2="270.079"/>
<line fill="none" stroke="#000000" stroke-width="4" stroke-miterlimit="10" x1="246.321" y1="70.078" x2="246.321" y2="270.079"/>
<g>
	<defs>
		<rect id="SVGID_1_" y="0" width="340.157" height="340.157"/>
	</defs>
	<clipPath id="SVGID_2_">
		<use xlink:href="#SVGID_1_"  overflow="visible"/>
	</clipPath>
	<path clip-path="url(#SVGID_2_)" fill="#0090C9" d="M180.779,162.66c3.299,2.825,29.887-7.602,34.142-12.57l45.528-53.152
		c2.074-2.422,2.568-5.89,1.065-8.702c-1.858-3.478-4.704-7.023-8.369-10.162c-3.537-3.03-7.331-5.248-10.938-6.57
		c-3.139-1.15-6.656-0.278-8.83,2.26l-45.52,53.144c-4.257,4.968-10.476,32.843-7.177,35.668"/>
	<path clip-path="url(#SVGID_2_)" fill="none" stroke="#005896" stroke-width="2" stroke-linejoin="round" d="M180.779,162.66
		c3.299,2.825,29.887-7.602,34.142-12.57l45.528-53.152c2.074-2.422,2.568-5.89,1.065-8.702c-1.858-3.478-4.704-7.023-8.369-10.162
		c-3.537-3.03-7.331-5.248-10.938-6.57c-3.139-1.15-6.656-0.278-8.83,2.26l-45.52,53.144c-4.257,4.968-10.476,32.843-7.177,35.668"
		/>
	<path clip-path="url(#SVGID_2_)" fill="#FCE0BF" d="M187.329,127.634c-4.217,6.472-9.813,32.231-6.647,34.942l0.097,0.084
		c3.176,2.72,27.926-6.84,33.566-11.99c-1.444-5.439-4.88-10.973-10.081-15.428C199.019,130.75,192.965,128.197,187.329,127.634"/>
	<path clip-path="url(#SVGID_2_)" fill="none" stroke="#005896" stroke-width="2" stroke-linejoin="round" d="M187.329,127.634
		c-4.217,6.472-9.813,32.231-6.647,34.942l0.097,0.084c3.176,2.72,27.926-6.84,33.566-11.99c-1.444-5.439-4.88-10.973-10.081-15.428
		C199.019,130.75,192.965,128.197,187.329,127.634z"/>
	<path clip-path="url(#SVGID_2_)" fill="#0090C9" d="M180.999,147.739c-1.349,7.115-1.814,13.555-0.317,14.837l0.098,0.084
		c1.5,1.285,7.819-0.175,14.662-2.612c-1.306-2.975-3.196-5.65-5.729-7.818C187.152,150.036,184.181,148.567,180.999,147.739"/>
	<path clip-path="url(#SVGID_2_)" fill="none" stroke="#005896" stroke-width="2" stroke-linejoin="round" d="M180.999,147.739
		c-1.349,7.115-1.814,13.555-0.317,14.837l0.098,0.084c1.5,1.285,7.819-0.175,14.662-2.612c-1.306-2.975-3.196-5.65-5.729-7.818
		C187.152,150.036,184.181,148.567,180.999,147.739z"/>
	<path clip-path="url(#SVGID_2_)" fill="#E1F3FC" d="M215.121,138.36c-1.141-0.977-1.272-2.695-0.296-3.836l37.322-43.573
		c0.977-1.141,2.695-1.273,3.836-0.296c1.14,0.977,1.273,2.695,0.296,3.835l-37.322,43.574
		C217.98,139.204,216.262,139.336,215.121,138.36"/>
</g>
</svg>
