<?xml version="1.0" encoding="utf-8"?>
<!-- Generator: Adobe Illustrator 14.0.0, SVG Export Plug-In . SVG Version: 6.00 Build 43363)  -->
<!DOCTYPE svg PUBLIC "-//W3C//DTD SVG 1.1//EN" "http://www.w3.org/Graphics/SVG/1.1/DTD/svg11.dtd">
<svg version="1.1" id="Layer_1" xmlns="http://www.w3.org/2000/svg" xmlns:xlink="http://www.w3.org/1999/xlink" x="0px" y="0px"
	 width="708.662px" height="708.662px" viewBox="0 0 708.662 708.662" enable-background="new 0 0 708.662 708.662"
	 xml:space="preserve">
<g>
	<defs>
		<polygon id="SVGID_1_" points="71.713,431.189 355.174,431.189 355.174,638.433 		"/>
	</defs>
	<clipPath id="SVGID_2_">
		<use xlink:href="#SVGID_1_"  overflow="visible"/>
	</clipPath>
	
		<linearGradient id="SVGID_3_" gradientUnits="userSpaceOnUse" x1="0" y1="708.6626" x2="1" y2="708.6626" gradientTransform="matrix(283.4614 0 0 -283.4614 71.5833 201413.1875)">
		<stop  offset="0" style="stop-color:#595857"/>
		<stop  offset="0.3454" style="stop-color:#44403F"/>
		<stop  offset="0.6832" style="stop-color:#2E2B2A"/>
		<stop  offset="1" style="stop-color:#232120"/>
	</linearGradient>
	<rect x="71.713" y="431.189" clip-path="url(#SVGID_2_)" fill="url(#SVGID_3_)" width="283.461" height="207.244"/>
</g>
<polygon fill="none" stroke="#000000" stroke-width="5" stroke-linejoin="round" stroke-miterlimit="10" points="71.713,431.189 
	355.174,431.189 355.174,638.433 "/>
<g>
	<defs>
		<polygon id="SVGID_4_" points="638.643,431.189 355.174,431.189 355.174,638.433 		"/>
	</defs>
	<clipPath id="SVGID_5_">
		<use xlink:href="#SVGID_4_"  overflow="visible"/>
	</clipPath>
	
		<linearGradient id="SVGID_6_" gradientUnits="userSpaceOnUse" x1="4.882813e-004" y1="708.6616" x2="1.0005" y2="708.6616" gradientTransform="matrix(283.4688 0 0 -283.4688 354.9845 201418.2813)">
		<stop  offset="0" style="stop-color:#595857"/>
		<stop  offset="0.3454" style="stop-color:#44403F"/>
		<stop  offset="0.6832" style="stop-color:#2E2B2A"/>
		<stop  offset="1" style="stop-color:#232120"/>
	</linearGradient>
	<rect x="355.174" y="431.189" clip-path="url(#SVGID_5_)" fill="url(#SVGID_6_)" width="283.469" height="207.244"/>
</g>
<polygon fill="none" stroke="#000000" stroke-width="5" stroke-linejoin="round" stroke-miterlimit="10" points="638.644,431.189 
	355.174,431.189 355.174,638.433 "/>
<g>
	<defs>
		<polygon id="SVGID_7_" points="535.854,431.189 355.174,521.111 174.502,431.189 355.174,71.503 		"/>
	</defs>
	<clipPath id="SVGID_8_">
		<use xlink:href="#SVGID_7_"  overflow="visible"/>
	</clipPath>
	
		<linearGradient id="SVGID_9_" gradientUnits="userSpaceOnUse" x1="-4.882813e-004" y1="708.6616" x2="0.9995" y2="708.6616" gradientTransform="matrix(361.3516 0 0 -361.3516 174.494 256372.4844)">
		<stop  offset="0" style="stop-color:#595857"/>
		<stop  offset="0.3454" style="stop-color:#44403F"/>
		<stop  offset="0.6832" style="stop-color:#2E2B2A"/>
		<stop  offset="1" style="stop-color:#232120"/>
	</linearGradient>
	<rect x="174.502" y="71.503" clip-path="url(#SVGID_8_)" fill="url(#SVGID_9_)" width="361.353" height="449.607"/>
</g>
<polygon fill="none" stroke="#000000" stroke-width="5" stroke-linejoin="round" stroke-miterlimit="10" points="535.854,431.189 
	355.174,521.111 174.502,431.189 355.174,71.504 "/>
<g>
	<defs>
		<polygon id="SVGID_10_" points="355.174,71.503 71.713,296.313 71.713,431.189 174.502,431.189 		"/>
	</defs>
	<clipPath id="SVGID_11_">
		<use xlink:href="#SVGID_10_"  overflow="visible"/>
	</clipPath>
	
		<linearGradient id="SVGID_12_" gradientUnits="userSpaceOnUse" x1="0" y1="708.6626" x2="1" y2="708.6626" gradientTransform="matrix(283.4614 0 0 -283.4614 71.5833 201129.6875)">
		<stop  offset="0" style="stop-color:#595857"/>
		<stop  offset="0.3454" style="stop-color:#44403F"/>
		<stop  offset="0.6832" style="stop-color:#2E2B2A"/>
		<stop  offset="1" style="stop-color:#232120"/>
	</linearGradient>
	<rect x="71.713" y="71.503" clip-path="url(#SVGID_11_)" fill="url(#SVGID_12_)" width="283.461" height="359.686"/>
</g>
<polygon fill="none" stroke="#000000" stroke-width="5" stroke-linejoin="round" stroke-miterlimit="10" points="355.174,71.504 
	71.713,296.314 71.713,431.189 174.502,431.189 "/>
<g>
	<defs>
		<polygon id="SVGID_13_" points="355.174,71.503 638.643,296.313 638.643,431.189 535.854,431.189 		"/>
	</defs>
	<clipPath id="SVGID_14_">
		<use xlink:href="#SVGID_13_"  overflow="visible"/>
	</clipPath>
	
		<linearGradient id="SVGID_15_" gradientUnits="userSpaceOnUse" x1="4.882813e-004" y1="708.6616" x2="1.0005" y2="708.6616" gradientTransform="matrix(283.4688 0 0 -283.4688 354.9845 201134.7813)">
		<stop  offset="0" style="stop-color:#595857"/>
		<stop  offset="0.3454" style="stop-color:#44403F"/>
		<stop  offset="0.6832" style="stop-color:#2E2B2A"/>
		<stop  offset="1" style="stop-color:#232120"/>
	</linearGradient>
	<rect x="355.174" y="71.503" clip-path="url(#SVGID_14_)" fill="url(#SVGID_15_)" width="283.469" height="359.686"/>
</g>
<polygon fill="none" stroke="#000000" stroke-width="5" stroke-linejoin="round" stroke-miterlimit="10" points="355.174,71.504 
	638.644,296.314 638.644,431.189 535.854,431.189 "/>
<g>
	<defs>
		<rect id="SVGID_16_" y="0" width="708.662" height="708.662"/>
	</defs>
	<clipPath id="SVGID_17_">
		<use xlink:href="#SVGID_16_"  overflow="visible"/>
	</clipPath>
	<path clip-path="url(#SVGID_17_)" fill="#FFFFFF" d="M296.899,434.257c0,1.598-0.146,3.193-0.432,4.793
		c-0.285,1.598-0.789,3.014-1.507,4.248c-0.721,1.232-1.727,2.215-3.02,2.941c-1.293,0.725-2.875,1.016-4.742,0.872
		c-3.162-0.294-5.787-1.524-7.869-3.704c-2.084-2.178-3.127-5.303-3.127-9.367V288.723c0-3.923,0.896-7.007,2.693-9.258
		c1.797-2.251,4.275-3.377,7.441-3.377c4.168,0,6.969,1.272,8.407,3.811c1.435,2.543,2.156,5.413,2.156,8.607V434.257z"/>
	<path clip-path="url(#SVGID_17_)" fill="#FFFFFF" d="M455.94,361.492c0,6.391-0.327,12.961-0.981,19.715
		c-0.653,6.754-1.817,13.289-3.485,19.609c-1.672,6.318-3.851,12.275-6.535,17.865c-2.69,5.592-6.1,10.49-10.241,14.706
		c-4.138,4.21-9.041,7.517-14.707,9.911c-5.664,2.398-12.199,3.596-19.606,3.596c-7.556,0-14.199-1.197-19.935-3.596
		c-5.74-2.395-10.675-5.701-14.815-9.911c-4.14-4.216-7.591-9.114-10.349-14.706c-2.76-5.59-4.976-11.547-6.646-17.865
		c-1.67-6.32-2.83-12.855-3.485-19.609c-0.654-6.754-0.98-13.324-0.98-19.715c0-6.245,0.289-12.708,0.871-19.391
		c0.578-6.68,1.635-13.216,3.16-19.608c1.524-6.39,3.629-12.381,6.319-17.974c2.683-5.59,6.099-10.492,10.238-14.706
		c4.138-4.211,9.149-7.551,15.033-10.022c5.883-2.467,12.745-3.703,20.588-3.703c7.696,0,14.379,1.236,20.045,3.703
		c5.664,2.471,10.565,5.811,14.703,10.022c4.141,4.214,7.553,9.116,10.241,14.706c2.687,5.593,4.793,11.584,6.319,17.974
		c1.523,6.392,2.613,12.928,3.267,19.608C455.613,348.784,455.94,355.247,455.94,361.492 M434.589,361.492
		c0-7.117-0.363-14.597-1.091-22.442c-0.728-7.843-2.287-14.994-4.683-21.459c-2.397-6.462-5.85-11.799-10.348-16.013
		c-4.504-4.211-10.533-6.318-18.084-6.318c-7.843,0-14.052,2.107-18.627,6.318c-4.576,4.214-8.062,9.551-10.457,16.013
		c-2.399,6.465-3.961,13.616-4.685,21.459c-0.729,7.845-1.091,15.325-1.091,22.442c0,7.406,0.398,14.998,1.199,22.766
		c0.797,7.771,2.429,14.891,4.901,21.352c2.468,6.465,5.99,11.764,10.567,15.904c4.574,4.139,10.636,6.209,18.191,6.209
		c7.262,0,13.144-2.07,17.646-6.209c4.502-4.141,7.989-9.439,10.459-15.904c2.467-6.461,4.103-13.58,4.901-21.352
		C434.188,376.49,434.589,368.898,434.589,361.492"/>
</g>
</svg>
