<?xml version="1.0"?>
<svg width="77" height="91" xmlns="http://www.w3.org/2000/svg" xmlns:svg="http://www.w3.org/2000/svg" xmlns:xlink="http://www.w3.org/1999/xlink" enable-background="new 0 0 141.732 141.732" version="1.1" xml:space="preserve">
 <g class="layer">
  <title>Layer 1</title>
  <g id="svg_1">
   <defs transform="translate(1 0) translate(1 0) translate(1 0) translate(0 1) translate(0 1) translate(0 1) translate(-0.00000137329 4.57764e-7) translate(0 -31.02) translate(-38.94 0)">
    <rect height="141.73" id="SVGID_1_" width="141.73"/>
   </defs>
   <clipPath id="SVGID_2_">
    <use id="svg_2" overflow="visible" x="-35.94" xlink:href="#SVGID_1_" y="-28.02"/>
   </clipPath>
   <path clip-path="url(#SVGID_2_)" d="m64.09,84.47c0,1.96 -1.61,3.57 -3.58,3.57l-44.16,0c-1.97,0 -3.57,-1.61 -3.57,-3.57l-1.79,-62.38c0,-1.96 1.61,-3.57 3.57,-3.57l47.74,0c1.96,0 3.57,1.61 3.57,3.57l-1.78,62.38z" fill="none" id="svg_3" stroke="#000000" stroke-miterlimit="10" stroke-width="5"/>
   <line clip-path="url(#SVGID_2_)" fill="none" id="svg_4" stroke="#000000" stroke-linecap="round" stroke-linejoin="round" stroke-miterlimit="10" stroke-width="5" x1="39.11" x2="39.11" y1="38.92" y2="70.32"/>
   <line clip-path="url(#SVGID_2_)" fill="none" id="svg_5" stroke="#000000" stroke-linecap="round" stroke-linejoin="round" stroke-miterlimit="10" stroke-width="5" x1="24.22" x2="24.22" y1="38.92" y2="70.32"/>
   <line clip-path="url(#SVGID_2_)" fill="none" id="svg_6" stroke="#000000" stroke-linecap="round" stroke-linejoin="round" stroke-miterlimit="10" stroke-width="5" x1="54" x2="54" y1="38.92" y2="70.32"/>
   <path clip-path="url(#SVGID_2_)" d="m52.64,12.68c0,1.96 -1.6,3.57 -3.57,3.57l-21.28,0c-1.96,0 -3.57,-1.61 -3.57,-3.57l0,-6.11c0,-1.96 1.61,-3.57 3.57,-3.57l21.28,0c1.97,0 3.57,1.61 3.57,3.57l0,6.11z" fill="#9FA0A0" id="svg_7"/>
   <path clip-path="url(#SVGID_2_)" d="m52.64,12.68c0,1.96 -1.6,3.57 -3.57,3.57l-21.28,0c-1.96,0 -3.57,-1.61 -3.57,-3.57l0,-6.11c0,-1.96 1.61,-3.57 3.57,-3.57l21.28,0c1.97,0 3.57,1.61 3.57,3.57l0,6.11z" fill="none" id="svg_8" stroke="#000000" stroke-miterlimit="10" stroke-width="5"/>
   <path clip-path="url(#SVGID_2_)" d="m73.86,20.79c0,1.96 -1.6,3.57 -3.57,3.57l-63.72,0c-1.96,0 -3.57,-1.61 -3.57,-3.57l0,-4.54c0,-1.97 1.61,-3.57 3.57,-3.57l63.72,0c1.96,0 3.57,1.6 3.57,3.57l0,4.54z" fill="#9FA0A0" id="svg_9"/>
   <path clip-path="url(#SVGID_2_)" d="m73.86,20.79c0,1.96 -1.6,3.57 -3.57,3.57l-63.72,0c-1.96,0 -3.57,-1.61 -3.57,-3.57l0,-4.54c0,-1.97 1.61,-3.57 3.57,-3.57l63.72,0c1.96,0 3.57,1.6 3.57,3.57l0,4.54z" fill="none" id="svg_10" stroke="#000000" stroke-miterlimit="10" stroke-width="5"/>
  </g>
 </g>
</svg>