<?xml version="1.0" encoding="UTF-8"?>
<svg id="_레이어_2" data-name="레이어 2" xmlns="http://www.w3.org/2000/svg" xmlns:xlink="http://www.w3.org/1999/xlink" viewBox="0 0 65 65">
  <defs>
    <style>
      .cls-1 {
        fill: #6ec4e5;
      }

      .cls-1, .cls-2 {
        stroke-width: 0px;
      }

      .cls-2 {
        fill: #fff;
        filter: url(#drop-shadow-1);
      }
    </style>
    <filter id="drop-shadow-1" filterUnits="userSpaceOnUse">
      <feOffset dx="0" dy="0"/>
      <feGaussianBlur result="blur" stdDeviation="4"/>
      <feFlood flood-color="#000" flood-opacity=".15"/>
      <feComposite in2="blur" operator="in"/>
      <feComposite in="SourceGraphic"/>
    </filter>
  </defs>
  <g id="_디자인" data-name="디자인">
    <g>
      <rect class="cls-2" x="12.75" y="12.62" width="40" height="40" rx="10" ry="10" transform="translate(65.38 -.13) rotate(90)"/>
      <path class="cls-1" d="m44.75,31.6c0,.75-.63,1.34-1.33,1.34h-1.33l.03,6.68c0,.11,0,.23-.02.34v.67c0,.92-.75,1.67-1.67,1.67h-.67s-.09,0-.14,0c-.06,0-.12,0-.18,0h-2.35c-.92,0-1.67-.75-1.67-1.67v-3.67c0-.74-.6-1.33-1.33-1.33h-2.67c-.74,0-1.33.6-1.33,1.33v3.67c0,.92-.75,1.67-1.67,1.67h-2.33c-.06,0-.13,0-.19,0-.05,0-.1,0-.15,0h-.67c-.92,0-1.67-.75-1.67-1.67v-4.67s0-.08,0-.12v-2.9h-1.34c-.75,0-1.33-.58-1.33-1.34,0-.38.13-.71.42-1l10.68-9.31c.29-.29.63-.33.92-.33s.63.08.88.29l10.64,9.35c.33.29.5.63.46,1Z"/>
    </g>
  </g>
</svg>