<svg xmlns="http://www.w3.org/2000/svg" viewBox="0 0 21 21">
    <defs>
        <style>
            .cls-1 {
                fill: #fff;
                stroke: #0f9ad1;
                stroke-linecap: round;
                stroke-linejoin: round;
            }

            .cls-2 {
                fill: #48cfef;
            }
        </style>
    </defs>
    <g id="Layer_2" data-name="Layer 2">
        <g id="레이어_1" data-name="레이어 1">
            <circle class="cls-1" cx="10.5" cy="10.5" r="10" />
            <path class="cls-2"
                d="M13.78,15.46H7.06a1.16,1.16,0,0,1-.83-.34,1.11,1.11,0,0,1-.33-.83L6,7A1.17,1.17,0,0,1,7.12,5.86H9.74a1.13,1.13,0,0,1,.78.31l1.33,1.22a.21.21,0,0,0,.11,0h1.86A1.16,1.16,0,0,1,15,8.59l0,5.72A1.17,1.17,0,0,1,13.78,15.46ZM7.12,6.86A.16.16,0,0,0,7,7L6.9,14.3a.17.17,0,0,0,0,.12.24.24,0,0,0,.12,0h6.72a.16.16,0,0,0,.16-.15l0-5.72a.19.19,0,0,0-.05-.12.23.23,0,0,0-.11,0H12a1.13,1.13,0,0,1-.78-.31L9.85,6.9a.21.21,0,0,0-.11,0Z" />
            <path class="cls-2"
                d="M9.77,9.71l6.11.08a.74.74,0,0,1,.67,1L14.85,15a.73.73,0,0,1-.68.46H8.11a.74.74,0,0,1-.69-1l1.65-4.26A.75.75,0,0,1,9.77,9.71Z" />
        </g>
    </g>
</svg>